<?xml version="1.0" encoding="utf-8"?><!DOCTYPE svg PUBLIC "-//W3C//DTD SVG 1.1//EN" "http://www.w3.org/Graphics/SVG/1.1/DTD/svg11.dtd"><svg width="5400" height="180" viewBox="0 0 5400 180" xmlns="http://www.w3.org/2000/svg" xmlns:xlink="http://www.w3.org/1999/xlink"><svg width="180" height="180" viewBox="0 0 180 180" id="icon-maneuver-00"/><svg width="180" height="180" viewBox="0 0 180 180" id="icon-maneuver-01" x="180"><path d="M139.183 59.363L88.14 11.69 40.43 62.817a8 8 0 0 0 .39 11.307 7.97 7.97 0 0 0 5.457 2.15 7.98 7.98 0 0 0 5.85-2.54l28.487-30.526V159a8 8 0 0 0 16 0V41.498l31.647 29.56a8 8 0 0 0 10.923-11.695z"/></svg><svg width="180" height="180" viewBox="0 0 180 180" id="icon-maneuver-02" x="360"><path d="M117.18 42.357a8 8 0 0 0-11.306.39 8 8 0 0 0 .39 11.308l28.522 26.617H25a8 8 0 0 0 0 16h111.508l-27.7 29.662a8 8 0 0 0 .386 11.307 7.97 7.97 0 0 0 5.458 2.154 7.98 7.98 0 0 0 5.85-2.54l45.81-49.05-49.13-45.847z"/></svg><svg width="180" height="180" viewBox="0 0 180 180" id="icon-maneuver-03" x="540"><path d="M155 80.672H45.213l28.522-26.617A8 8 0 0 0 62.82 42.357L13.69 88.204l45.81 49.05a7.973 7.973 0 0 0 5.85 2.54 8 8 0 0 0 5.845-13.46L43.49 96.674H155a8 8 0 0 0 0-16z"/></svg><svg width="180" height="180" viewBox="0 0 180 180" id="icon-maneuver-04" x="720"><path d="M90 14c-24.942 0-45.233 21.248-45.233 47.366 0 12.876 5.857 24.85 11.025 35.416.928 1.896 1.834 3.75 2.674 5.545 8.044 17.25 25.822 59.57 26 59.995A6.002 6.002 0 0 0 90 166a6.003 6.003 0 0 0 5.436-3.462c.208-.445 20.873-44.718 28.013-60.235 6.322-13.72 11.784-25.568 11.784-40.937C135.234 35.248 114.94 14 90 14zm0 25.216c7.72 0 14 6.282 14 14.004 0 7.718-6.28 13.997-14 13.997s-14-6.28-14-13.997c0-7.722 6.28-14.004 14-14.004z"/></svg><svg width="180" height="180" viewBox="0 0 180 180" id="icon-maneuver-05" x="900"><path d="M121.735 14c-24.94 0-45.232 21.25-45.232 47.366 0 12.876 5.857 24.85 11.025 35.416.928 1.897 1.834 3.75 2.674 5.545 8.044 17.25 25.822 59.57 26 59.995A6.003 6.003 0 0 0 121.62 166h.118a6.003 6.003 0 0 0 5.437-3.462c.208-.445 20.873-44.718 28.012-60.235 6.324-13.72 11.785-25.568 11.785-40.937C166.97 35.25 146.677 14 121.735 14zm0 25.216c7.72 0 14 6.282 14 14.004 0 7.718-6.28 13.997-14 13.997s-14-6.28-14-13.997c0-7.722 6.28-14.004 14-14.004z"/><path fill="#010101" d="M50.255 87.21a6 6 0 1 0-8.192 8.77l15.927 14.88H19.032a6 6 0 0 0 0 12h40.342L43.61 139.72a6 6 0 1 0 8.765 8.195l29.307-31.34L50.255 87.21z"/></svg><svg width="180" height="180" viewBox="0 0 180 180" id="icon-maneuver-06" x="1080"><path d="M58.267 14c-24.943 0-45.235 21.25-45.235 47.366 0 15.365 5.46 27.215 11.784 40.933 7.14 15.52 27.807 59.793 28.015 60.238A6 6 0 0 0 58.268 166h.118a6 6 0 0 0 5.415-3.678c.18-.425 17.954-42.745 26-59.992.84-1.8 1.748-3.655 2.676-5.553C97.643 86.214 103.5 74.24 103.5 61.367 103.497 35.248 83.206 14 58.266 14zm0 25.216c7.72 0 14 6.282 14 14.003 0 7.717-6.28 13.996-14 13.996s-14-6.28-14-13.997c0-7.722 6.28-14.004 14-14.004z"/><path fill="#010101" d="M160.97 110.86h-38.96l15.928-14.88a6 6 0 1 0-8.192-8.77l-31.428 29.365 29.308 31.34a5.984 5.984 0 0 0 4.384 1.903 6 6 0 0 0 4.38-10.098l-15.764-16.858h40.343a6 6 0 0 0 0-12z"/></svg><svg width="180" height="180" viewBox="0 0 180 180" id="icon-maneuver-07" x="1260"><path d="M139.183 59.363L88.14 11.69 40.43 62.817a8 8 0 0 0 .39 11.307 7.97 7.97 0 0 0 5.457 2.15 7.98 7.98 0 0 0 5.85-2.54l28.487-30.526V159a8 8 0 0 0 16 0V41.498l31.647 29.56a8 8 0 0 0 10.923-11.695z"/></svg><svg width="180" height="180" viewBox="0 0 180 180" id="icon-maneuver-08" x="1440"><path d="M139.183 59.363L88.14 11.69 40.43 62.817a8 8 0 0 0 .39 11.307 7.97 7.97 0 0 0 5.457 2.15 7.98 7.98 0 0 0 5.85-2.54l28.487-30.526V159a8 8 0 0 0 16 0V41.498l31.647 29.56a8 8 0 0 0 10.923-11.695z"/></svg><svg width="180" height="180" viewBox="0 0 180 180" id="icon-maneuver-09" x="1620"><path d="M95.03 12.27c-4.272-1.14-8.653 1.397-9.793 5.666a8 8 0 0 0 5.665 9.794l31.007 8.28-93.255 50.736V160a8 8 0 0 0 16 0V96.256l86.146-46.87-8.68 32.45a8 8 0 0 0 15.456 4.133l15.566-58.18L95.03 12.27z"/></svg><svg width="180" height="180" viewBox="0 0 180 180" id="icon-maneuver-10" x="1800"><path d="M114.59 14.15a8 8 0 1 0-10.917 11.698l23.344 21.79H24.762V160a8 8 0 0 0 16 0V63.637h87.992l-22.89 24.508a8 8 0 0 0 11.693 10.922l40.99-43.888-43.958-41.03z"/></svg><svg width="180" height="180" viewBox="0 0 180 180" id="icon-maneuver-11" x="1980"><path d="M149.762 52.81c-.45-4.395-4.39-7.592-8.772-7.143a8 8 0 0 0-7.144 8.773l3.547 34.667L42.86 12H24.826v148a8 8 0 0 0 16 0V30.986l84.918 69.265-31.793 3.24a8 8 0 1 0 1.62 15.918l60.378-6.152-6.186-60.445z"/></svg><svg width="180" height="180" viewBox="0 0 180 180" id="icon-maneuver-12" x="2160"><path d="M152.734 62.208a7.997 7.997 0 0 0-11.307.39L119.587 86V12H24.725v148a8 8 0 0 0 16 0V28h62.862v59.76L79 64.796a7.996 7.996 0 0 0-11.307.387 8 8 0 0 0 .386 11.307l43.955 41.052 41.09-44.026a8 8 0 0 0-.39-11.308z"/></svg><svg width="180" height="180" viewBox="0 0 180 180" id="icon-maneuver-13" x="2340"><path d="M60.413 12v74l-21.84-23.4a8 8 0 0 0-11.697 10.915l41.09 44.026 43.954-41.05a8 8 0 0 0 .386-11.307A8 8 0 0 0 101 64.796L76.412 87.76V28h62.862v132a8 8 0 0 0 16 0V12H60.413z"/></svg><svg width="180" height="180" viewBox="0 0 180 180" id="icon-maneuver-14" x="2520"><path d="M137.14 12L42.606 89.106l3.547-34.667a8 8 0 0 0-7.144-8.774c-4.398-.445-8.323 2.75-8.772 7.144l-6.187 60.446 60.378 6.152a8 8 0 0 0 1.62-15.917l-31.792-3.24 84.918-69.264V160a8 8 0 0 0 16 0V12H137.14z"/></svg><svg width="180" height="180" viewBox="0 0 180 180" id="icon-maneuver-15" x="2700"><path d="M52.982 47.637L76.327 25.85A8 8 0 0 0 65.41 14.15L21.453 55.178l40.99 43.888a7.977 7.977 0 0 0 5.848 2.54 8 8 0 0 0 5.845-13.46l-22.89-24.51h87.993V160a8 8 0 0 0 16 0V47.637H52.982z"/></svg><svg width="180" height="180" viewBox="0 0 180 180" id="icon-maneuver-16" x="2880"><path d="M58.09 36.01l31.01-8.28A8 8 0 0 0 84.97 12.27L26.857 27.79 42.424 85.97a7.988 7.988 0 0 0 9.796 5.66 8 8 0 0 0 5.66-9.796L49.2 49.388l86.145 46.868V160a8 8 0 0 0 16 0V86.746L58.09 36.01z"/></svg><svg width="180" height="180" viewBox="0 0 180 180" id="icon-maneuver-17" x="3060"><path d="M139.183 59.363L88.14 11.69 40.43 62.817a8 8 0 0 0 .39 11.307 7.97 7.97 0 0 0 5.457 2.15 7.98 7.98 0 0 0 5.85-2.54l28.487-30.526V159a8 8 0 0 0 16 0V41.498l31.647 29.56a8 8 0 0 0 10.923-11.695z"/></svg><svg width="180" height="180" viewBox="0 0 180 180" id="icon-maneuver-18" x="3240"><path d="M29.377 13h14v141h-14z" opacity=".4"/><path d="M95.308 12.27a7.997 7.997 0 0 0-9.794 5.666 8 8 0 0 0 5.665 9.793l31.007 8.28-93.25 50.736V160a8 8 0 0 0 16 0V96.255l86.143-46.87-8.68 32.448a8 8 0 0 0 5.66 9.795 7.975 7.975 0 0 0 2.072.274 8.005 8.005 0 0 0 7.724-5.935L153.42 27.79 95.308 12.27z"/></svg><svg width="180" height="180" viewBox="0 0 180 180" id="icon-maneuver-19" x="3420"><path d="M136.9 13h14v141h-14z" opacity=".4"/><path d="M58.09 36.01l31.01-8.28a8 8 0 0 0 5.664-9.794 7.997 7.997 0 0 0-9.794-5.665L26.858 27.79l15.565 58.18a8.003 8.003 0 0 0 7.723 5.934c.684 0 1.38-.088 2.072-.274a8 8 0 0 0 5.66-9.795L49.2 49.388l86.144 46.87V160a8 8 0 0 0 16 0V86.746L58.092 36.01z"/></svg><svg width="180" height="180" viewBox="0 0 180 180" id="icon-maneuver-20" x="3600"><path d="M29.377 13h14v141h-14z" opacity=".4"/><path d="M95.308 12.27a7.997 7.997 0 0 0-9.794 5.666 8 8 0 0 0 5.665 9.793l31.007 8.28-93.25 50.736V160a8 8 0 0 0 16 0V96.255l86.143-46.87-8.68 32.448a8 8 0 0 0 5.66 9.795 7.975 7.975 0 0 0 2.072.274 8.005 8.005 0 0 0 7.724-5.935L153.42 27.79 95.308 12.27z"/></svg><svg width="180" height="180" viewBox="0 0 180 180" id="icon-maneuver-21" x="3780"><path d="M136.9 13h14v141h-14z" opacity=".4"/><path d="M58.09 36.01l31.01-8.28a8 8 0 0 0 5.664-9.794 7.997 7.997 0 0 0-9.794-5.665L26.858 27.79l15.565 58.18a8.003 8.003 0 0 0 7.723 5.934c.684 0 1.38-.088 2.072-.274a8 8 0 0 0 5.66-9.795L49.2 49.388l86.144 46.87V160a8 8 0 0 0 16 0V86.746L58.092 36.01z"/></svg><svg width="180" height="180" viewBox="0 0 180 180" id="icon-maneuver-22" x="3960"><path d="M139.183 59.363L88.14 11.69 40.43 62.817a8 8 0 0 0 .39 11.307 7.97 7.97 0 0 0 5.457 2.15 7.98 7.98 0 0 0 5.85-2.54l28.487-30.526V159a8 8 0 0 0 16 0V41.498l31.647 29.56a8 8 0 0 0 10.923-11.695z"/></svg><svg width="180" height="180" viewBox="0 0 180 180" id="icon-maneuver-23" x="4140"><path d="M29.377 13h14v141h-14z" opacity=".4"/><path d="M95.308 12.27a7.997 7.997 0 0 0-9.794 5.666 8 8 0 0 0 5.665 9.793l31.007 8.28-93.25 50.736V160a8 8 0 0 0 16 0V96.255l86.143-46.87-8.68 32.448a8 8 0 0 0 5.66 9.795 7.975 7.975 0 0 0 2.072.274 8.005 8.005 0 0 0 7.724-5.935L153.42 27.79 95.308 12.27z"/></svg><svg width="180" height="180" viewBox="0 0 180 180" id="icon-maneuver-24" x="4320"><path d="M136.9 13h14v141h-14z" opacity=".4"/><path d="M58.09 36.01l31.01-8.28a8 8 0 0 0 5.664-9.794 7.997 7.997 0 0 0-9.794-5.665L26.858 27.79l15.565 58.18a8.003 8.003 0 0 0 7.723 5.934c.684 0 1.38-.088 2.072-.274a8 8 0 0 0 5.66-9.795L49.2 49.388l86.144 46.87V160a8 8 0 0 0 16 0V86.746L58.092 36.01z"/></svg><svg width="180" height="180" viewBox="0 0 180 180" id="icon-maneuver-25" x="4500"><path d="M155.863 151c-30.06 0-54.54-24.52-54.88-54.787.003-.114.017-.226.017-.34V46.656l23.163 24.82a7.978 7.978 0 0 0 5.85 2.543 8 8 0 0 0 5.847-13.458L91.188 12.69 43.4 57.33a8 8 0 1 0 10.92 11.69L79 45.97v49.903c0 .106.013.21.016.314C78.688 126.467 54.202 151 24.136 151a8 8 0 0 0 0 16C53.98 167 79.56 148.314 90 121.953 100.437 148.313 126.017 167 155.862 167a8 8 0 0 0 0-16z"/></svg><svg width="180" height="180" viewBox="0 0 180 180" id="icon-maneuver-26" x="4680"><path opacity=".4" d="M153 64.29a7.002 7.002 0 0 0-8.872-4.392l-21.11 7.135c-5.315-7.015-13.083-12.07-22.018-13.878V27.003a7 7 0 0 0-14 0v26.045c-14.745 2.73-26.432 14.277-29.353 28.955H34a7 7 0 0 0 0 14h23.58a36.476 36.476 0 0 0 3.727 10.55l-17.52 10.114a7 7 0 0 0 7 12.125l19.518-11.268c6.36 5.262 14.516 8.428 23.396 8.428 20.273 0 36.767-16.492 36.767-36.764 0-3.275-.437-6.45-1.244-9.474l19.388-6.553a7 7 0 0 0 4.39-8.87zM93.7 111.95c-12.55 0-22.763-10.212-22.763-22.764S81.15 66.424 93.7 66.424c12.554 0 22.767 10.212 22.767 22.764s-10.213 22.764-22.766 22.764z"/><path d="M150.315 99.885L128.5 64.863l-34.934 21.78a8 8 0 0 0 8.464 13.577l13.258-8.266c-1.262 10.85-9.84 18.998-20.588 18.998a7.995 7.995 0 0 0-7 4.13 7.967 7.967 0 0 0-1.7 4.92v34a8 8 0 0 0 16 0v-27.77c14.143-2.816 25.137-13.71 28.438-27.998l6.298 10.11a7.99 7.99 0 0 0 6.798 3.77 7.997 7.997 0 0 0 6.78-12.23z"/></svg><svg width="180" height="180" viewBox="0 0 180 180" id="icon-maneuver-27" x="4860"><path d="M93 61.003a4 4 0 0 1-4-4v-28a4 4 0 0 1 8 0v28a4 4 0 0 1-4 4zM93 163.003a4 4 0 0 1-4-4v-27a4 4 0 0 1 8 0v27a4 4 0 0 1-4 4z" opacity=".4"/><path opacity=".4" d="M152.795 69.75a6.996 6.996 0 0 0-8.873-4.39l-21.546 7.284c-6.808-9.028-17.62-14.878-29.772-14.878-18.495 0-33.88 13.546-36.772 31.236H34a7 7 0 0 0 0 14h22.202a37.045 37.045 0 0 0 3.615 9.737l-17.912 10.34a7 7 0 0 0 7 12.125l19.918-11.5c6.458 5.366 14.748 8.598 23.78 8.598 20.55 0 37.27-16.718 37.27-37.268 0-3.36-.453-6.613-1.29-9.712l19.823-6.7a6.998 6.998 0 0 0 4.39-8.873zm-60.19 48.554c-6.943 0-13.182-3.06-17.448-7.898-.02-.023-.04-.048-.062-.072-3.58-4.093-5.758-9.443-5.758-15.297 0-12.83 10.438-23.27 23.268-23.27s23.27 10.438 23.27 23.27c0 12.83-10.44 23.267-23.27 23.267z"/><path d="M130.874 95.036c0-18.217-12.8-33.49-29.874-37.33V41.37l10.704 10.01a7.996 7.996 0 0 0 11.307-.378 7.998 7.998 0 0 0-.378-11.307L92.152 11.19 63.595 41.75a8 8 0 0 0 .384 11.306 7.97 7.97 0 0 0 5.46 2.155 7.98 7.98 0 0 0 5.846-2.537L85 42.276v18.727c0 .363.032.718.08 1.067a7.98 7.98 0 0 0-.477 2.696 8 8 0 0 0 8 8c12.28 0 22.27 9.99 22.27 22.27 0 12.007-8.64 21.508-19.91 22.22a7.996 7.996 0 0 0-1.963-.253 8 8 0 0 0-8 8v34a8 8 0 0 0 16 0v-26.427c17.238-3.43 29.874-18.69 29.874-37.54z"/></svg><svg width="180" height="180" viewBox="0 0 180 180" id="icon-maneuver-28" x="5040"><path fill-rule="evenodd" clip-rule="evenodd" d="M107.63 157.76c-2.81 5.415-7.57 8.033-13.646 8.12-6.367.1-11.348-2.518-14.336-8.19-1.46 3.504-4.277 5.65-7.785 7.067-4.225 1.672-8.533 1.643-12.732.03-4.91-1.88-6.923-5.677-7.274-10.4-.05-.652 0-1.33 0-2.173 2.8 3.773 6.973 4.596 11.24 5.067 3.285.37 6.594.132 9.77-.783 2.773-.815 5.348-1.904 6.836-4.597 1.475 2.65 3.984 3.812 6.717 4.545 5.052 1.37 10.14 1.323 15.165-.192 2.883-.876 4.385-1.97 6.05-4.273 2.01 3.29 5.44 4.355 9.04 4.992 4.596.815 9.168.594 13.592-.984 2.174-.775 4.08-1.883 5.238-4.038 2.676 4.02 7.033 4.895 11.49 5.332 4.48.422 8.934.012 12.965-2.104 1.27-.67 2.307-1.72 3.318-2.504.74 5.454-2.273 10.433-7.307 12.18-5.503 1.895-10.747 1.41-15.634-1.678-2.217-1.425-3.105-2.47-4.746-5.398-2.848 5.445-7.73 8.09-13.95 8.112-6.238.012-11.148-2.598-14.01-8.13z" opacity=".4"/><path d="M36.776 80.89a6 6 0 0 1-4.38-10.098L52.81 48.96 30.897 28.483a6 6 0 1 1 8.193-8.767l30.687 28.672-28.618 30.6a5.98 5.98 0 0 1-4.384 1.903z"/><path d="M56.807 54.674H16.61a6 6 0 0 1 0-12h40.196a6 6 0 0 1 0 12z"/><path fill-rule="evenodd" clip-rule="evenodd" d="M164.143 96.956l-10.366-5.14-4.88-24.052a5.507 5.507 0 0 0-3.345-4.012l-8.422-3.375-2.11-19.59a5.5 5.5 0 0 0-4.3-4.785l-7.92-1.72V19.77a5.5 5.5 0 0 0-5.5-5.5H96.31a5.5 5.5 0 0 0-5.5 5.5v14.51L82.89 36a5.503 5.503 0 0 0-4.3 4.785l-2.112 19.59-8.42 3.375a5.5 5.5 0 0 0-3.345 4.012l-4.888 24.093L49.65 96.97a5.5 5.5 0 0 0-2.758 6.62L57.6 136.4a5.5 5.5 0 0 0 .836 1.605c2.725 3.613 5.974 7.164 13.015 7.456.166.007.34.01.524.01 1.098 0 3.197-.147 5.558-1.075 3.426 2.967 8.404 4.633 14.256 4.633 4.634 0 10.594-1.183 15.123-4.245 4.53 3.062 10.49 4.245 15.123 4.245 5.852 0 10.83-1.667 14.256-4.634a15.47 15.47 0 0 0 5.556 1.077c.185 0 .36-.003.532-.01 7.036-.29 10.284-3.843 13.007-7.457a5.503 5.503 0 0 0 .836-1.604l10.708-32.81a5.5 5.5 0 0 0-2.785-6.634zm-55.16-27.347a5.494 5.494 0 0 0-4.914.013L72.322 85.576l2.58-12.717 8.734-3.5a5.502 5.502 0 0 0 3.423-4.517L89.1 45.91l8.378-1.82a5.475 5.475 0 0 0 1.857-.793h14.938a5.492 5.492 0 0 0 1.857.793l8.376 1.82 2.04 18.932a5.505 5.505 0 0 0 3.423 4.517l8.735 3.5 2.59 12.77-32.313-16.02z"/></svg><svg width="180" height="180" viewBox="0 0 180 180" id="icon-maneuver-29" x="5220"><path fill-rule="evenodd" clip-rule="evenodd" d="M107.63 157.76c-2.81 5.415-7.57 8.033-13.646 8.12-6.367.1-11.348-2.518-14.336-8.19-1.46 3.504-4.277 5.65-7.785 7.067-4.225 1.672-8.533 1.643-12.732.03-4.91-1.88-6.923-5.677-7.274-10.4-.05-.652 0-1.33 0-2.173 2.8 3.773 6.973 4.596 11.24 5.067 3.285.37 6.594.132 9.77-.783 2.773-.815 5.348-1.904 6.836-4.597 1.475 2.65 3.984 3.812 6.717 4.545 5.052 1.37 10.14 1.323 15.165-.192 2.883-.876 4.385-1.97 6.05-4.273 2.01 3.29 5.44 4.355 9.04 4.992 4.596.815 9.168.594 13.592-.984 2.174-.775 4.08-1.883 5.238-4.038 2.676 4.02 7.033 4.895 11.49 5.332 4.48.422 8.934.012 12.965-2.104 1.27-.67 2.307-1.72 3.318-2.504.74 5.454-2.273 10.433-7.307 12.18-5.503 1.895-10.747 1.41-15.634-1.678-2.217-1.425-3.105-2.47-4.746-5.398-2.848 5.445-7.73 8.09-13.95 8.112-6.238.012-11.148-2.598-14.01-8.13z" opacity=".4"/><path d="M41.13 80.89a5.986 5.986 0 0 1-4.383-1.9L8.13 48.388l30.686-28.672a6 6 0 1 1 8.193 8.767L25.094 48.96 45.51 70.792a6 6 0 0 1-4.38 10.1z"/><path d="M61.295 54.674H21.1a6 6 0 0 1 0-12h40.195a6 6 0 0 1 0 12z"/><path fill-rule="evenodd" clip-rule="evenodd" d="M164.143 96.956l-10.366-5.14-4.88-24.052a5.507 5.507 0 0 0-3.345-4.012l-8.422-3.375-2.11-19.59a5.5 5.5 0 0 0-4.3-4.785l-7.92-1.72V19.77a5.5 5.5 0 0 0-5.5-5.5H96.31a5.5 5.5 0 0 0-5.5 5.5v14.51L82.89 36a5.503 5.503 0 0 0-4.3 4.785l-2.112 19.59-8.42 3.375a5.5 5.5 0 0 0-3.345 4.012l-4.888 24.093L49.65 96.97a5.5 5.5 0 0 0-2.758 6.62L57.6 136.4a5.5 5.5 0 0 0 .836 1.605c2.725 3.613 5.974 7.164 13.015 7.456.166.007.34.01.524.01 1.098 0 3.197-.147 5.558-1.075 3.426 2.967 8.404 4.633 14.256 4.633 4.634 0 10.594-1.183 15.123-4.245 4.53 3.062 10.49 4.245 15.123 4.245 5.852 0 10.83-1.667 14.256-4.634a15.47 15.47 0 0 0 5.556 1.077c.185 0 .36-.003.532-.01 7.036-.29 10.284-3.843 13.007-7.457a5.503 5.503 0 0 0 .836-1.604l10.708-32.81a5.5 5.5 0 0 0-2.785-6.634zm-55.16-27.347a5.494 5.494 0 0 0-4.914.013L72.323 85.576l2.58-12.717 8.733-3.5a5.502 5.502 0 0 0 3.423-4.517L89.1 45.91l8.378-1.82a5.475 5.475 0 0 0 1.857-.793h14.938a5.492 5.492 0 0 0 1.857.793l8.376 1.82 2.04 18.932a5.505 5.505 0 0 0 3.423 4.517l8.735 3.5 2.59 12.77-32.313-16.02z"/></svg></svg>