<?xml version="1.0" encoding="utf-8"?><!DOCTYPE svg PUBLIC "-//W3C//DTD SVG 1.1//EN" "http://www.w3.org/Graphics/SVG/1.1/DTD/svg11.dtd"><svg width="6840" height="180" viewBox="0 0 6840 180" xmlns="http://www.w3.org/2000/svg" xmlns:xlink="http://www.w3.org/1999/xlink"><svg width="180" height="180" viewBox="0 0 180 180" id="icon-maneuver-00"/><svg width="180" height="180" viewBox="0 0 180 180" id="icon-maneuver-01" x="180"><path d="M139.183 59.363L88.14 11.69 40.43 62.817a8 8 0 0 0 .39 11.307 7.97 7.97 0 0 0 5.457 2.15 7.98 7.98 0 0 0 5.85-2.54l28.487-30.526V159a8 8 0 0 0 16 0V41.498l31.647 29.56a8 8 0 0 0 10.923-11.695z"/></svg><svg width="180" height="180" viewBox="0 0 180 180" id="icon-maneuver-02" x="360"><path d="M117.18 42.357a8 8 0 0 0-11.306.39 8 8 0 0 0 .39 11.308l28.522 26.617H25a8 8 0 0 0 0 16h111.508l-27.7 29.662a8 8 0 0 0 .386 11.307 7.97 7.97 0 0 0 5.458 2.154 7.98 7.98 0 0 0 5.85-2.54l45.81-49.05-49.13-45.847z"/></svg><svg width="180" height="180" viewBox="0 0 180 180" id="icon-maneuver-03" x="540"><path d="M155 80.672H45.213l28.522-26.617A8 8 0 0 0 62.82 42.357L13.69 88.204l45.81 49.05a7.973 7.973 0 0 0 5.85 2.54 8 8 0 0 0 5.845-13.46L43.49 96.674H155a8 8 0 0 0 0-16z"/></svg><svg width="180" height="180" viewBox="0 0 180 180" id="icon-maneuver-04" x="720"><path d="M90 14c-24.942 0-45.233 21.248-45.233 47.366 0 12.876 5.857 24.85 11.025 35.416.928 1.896 1.834 3.75 2.674 5.545 8.044 17.25 25.822 59.57 26 59.995A6.002 6.002 0 0 0 90 166a6.003 6.003 0 0 0 5.436-3.462c.208-.445 20.873-44.718 28.013-60.235 6.322-13.72 11.784-25.568 11.784-40.937C135.234 35.248 114.94 14 90 14zm0 25.216c7.72 0 14 6.282 14 14.004 0 7.718-6.28 13.997-14 13.997s-14-6.28-14-13.997c0-7.722 6.28-14.004 14-14.004z"/></svg><svg width="180" height="180" viewBox="0 0 180 180" id="icon-maneuver-05" x="900"><path d="M121.735 14c-24.94 0-45.232 21.25-45.232 47.366 0 12.876 5.857 24.85 11.025 35.416.928 1.897 1.834 3.75 2.674 5.545 8.044 17.25 25.822 59.57 26 59.995A6.003 6.003 0 0 0 121.62 166h.118a6.003 6.003 0 0 0 5.437-3.462c.208-.445 20.873-44.718 28.012-60.235 6.324-13.72 11.785-25.568 11.785-40.937C166.97 35.25 146.677 14 121.735 14zm0 25.216c7.72 0 14 6.282 14 14.004 0 7.718-6.28 13.997-14 13.997s-14-6.28-14-13.997c0-7.722 6.28-14.004 14-14.004z"/><path fill="#010101" d="M50.255 87.21a6 6 0 1 0-8.192 8.77l15.927 14.88H19.032a6 6 0 0 0 0 12h40.342L43.61 139.72a6 6 0 1 0 8.765 8.195l29.307-31.34L50.255 87.21z"/></svg><svg width="180" height="180" viewBox="0 0 180 180" id="icon-maneuver-06" x="1080"><path d="M58.267 14c-24.943 0-45.235 21.25-45.235 47.366 0 15.365 5.46 27.215 11.784 40.933 7.14 15.52 27.807 59.793 28.015 60.238A6 6 0 0 0 58.268 166h.118a6 6 0 0 0 5.415-3.678c.18-.425 17.954-42.745 26-59.992.84-1.8 1.748-3.655 2.676-5.553C97.643 86.214 103.5 74.24 103.5 61.367 103.497 35.248 83.206 14 58.266 14zm0 25.216c7.72 0 14 6.282 14 14.003 0 7.717-6.28 13.996-14 13.996s-14-6.28-14-13.997c0-7.722 6.28-14.004 14-14.004z"/><path fill="#010101" d="M160.97 110.86h-38.96l15.928-14.88a6 6 0 1 0-8.192-8.77l-31.428 29.365 29.308 31.34a5.984 5.984 0 0 0 4.384 1.903 6 6 0 0 0 4.38-10.098l-15.764-16.858h40.343a6 6 0 0 0 0-12z"/></svg><svg width="180" height="180" viewBox="0 0 180 180" id="icon-maneuver-07" x="1260"><path d="M139.183 59.363L88.14 11.69 40.43 62.817a8 8 0 0 0 .39 11.307 7.97 7.97 0 0 0 5.457 2.15 7.98 7.98 0 0 0 5.85-2.54l28.487-30.526V159a8 8 0 0 0 16 0V41.498l31.647 29.56a8 8 0 0 0 10.923-11.695z"/></svg><svg width="180" height="180" viewBox="0 0 180 180" id="icon-maneuver-08" x="1440"><path d="M139.183 59.363L88.14 11.69 40.43 62.817a8 8 0 0 0 .39 11.307 7.97 7.97 0 0 0 5.457 2.15 7.98 7.98 0 0 0 5.85-2.54l28.487-30.526V159a8 8 0 0 0 16 0V41.498l31.647 29.56a8 8 0 0 0 10.923-11.695z"/></svg><svg width="180" height="180" viewBox="0 0 180 180" id="icon-maneuver-09" x="1620"><path d="M95.03 12.27c-4.272-1.14-8.653 1.397-9.793 5.666a8 8 0 0 0 5.665 9.794l31.007 8.28-93.255 50.736V160a8 8 0 0 0 16 0V96.256l86.146-46.87-8.68 32.45a8 8 0 0 0 15.456 4.133l15.566-58.18L95.03 12.27z"/></svg><svg width="180" height="180" viewBox="0 0 180 180" id="icon-maneuver-10" x="1800"><path d="M114.59 14.15a8 8 0 1 0-10.917 11.698l23.344 21.79H24.762V160a8 8 0 0 0 16 0V63.637h87.992l-22.89 24.508a8 8 0 0 0 11.693 10.922l40.99-43.888-43.958-41.03z"/></svg><svg width="180" height="180" viewBox="0 0 180 180" id="icon-maneuver-11" x="1980"><path d="M149.762 52.81c-.45-4.395-4.39-7.592-8.772-7.143a8 8 0 0 0-7.144 8.773l3.547 34.667L42.86 12H24.826v148a8 8 0 0 0 16 0V30.986l84.918 69.265-31.793 3.24a8 8 0 1 0 1.62 15.918l60.378-6.152-6.186-60.445z"/></svg><svg width="180" height="180" viewBox="0 0 180 180" id="icon-maneuver-12" x="2160"><path d="M152.734 62.208a7.997 7.997 0 0 0-11.307.39L119.587 86V12H24.725v148a8 8 0 0 0 16 0V28h62.862v59.76L79 64.796a7.996 7.996 0 0 0-11.307.387 8 8 0 0 0 .386 11.307l43.955 41.052 41.09-44.026a8 8 0 0 0-.39-11.308z"/></svg><svg width="180" height="180" viewBox="0 0 180 180" id="icon-maneuver-13" x="2340"><path d="M60.413 12v74l-21.84-23.4a8 8 0 0 0-11.697 10.915l41.09 44.026 43.954-41.05a8 8 0 0 0 .386-11.307A8 8 0 0 0 101 64.796L76.412 87.76V28h62.862v132a8 8 0 0 0 16 0V12H60.413z"/></svg><svg width="180" height="180" viewBox="0 0 180 180" id="icon-maneuver-14" x="2520"><path d="M137.14 12L42.606 89.106l3.547-34.667a8 8 0 0 0-7.144-8.774c-4.398-.445-8.323 2.75-8.772 7.144l-6.187 60.446 60.378 6.152a8 8 0 0 0 1.62-15.917l-31.792-3.24 84.918-69.264V160a8 8 0 0 0 16 0V12H137.14z"/></svg><svg width="180" height="180" viewBox="0 0 180 180" id="icon-maneuver-15" x="2700"><path d="M52.982 47.637L76.327 25.85A8 8 0 0 0 65.41 14.15L21.453 55.178l40.99 43.888a7.977 7.977 0 0 0 5.848 2.54 8 8 0 0 0 5.845-13.46l-22.89-24.51h87.993V160a8 8 0 0 0 16 0V47.637H52.982z"/></svg><svg width="180" height="180" viewBox="0 0 180 180" id="icon-maneuver-16" x="2880"><path d="M58.09 36.01l31.01-8.28A8 8 0 0 0 84.97 12.27L26.857 27.79 42.424 85.97a7.988 7.988 0 0 0 9.796 5.66 8 8 0 0 0 5.66-9.796L49.2 49.388l86.145 46.868V160a8 8 0 0 0 16 0V86.746L58.09 36.01z"/></svg><svg width="180" height="180" viewBox="0 0 180 180" id="icon-maneuver-17" x="3060"><path d="M139.183 59.363L88.14 11.69 40.43 62.817a8 8 0 0 0 .39 11.307 7.97 7.97 0 0 0 5.457 2.15 7.98 7.98 0 0 0 5.85-2.54l28.487-30.526V159a8 8 0 0 0 16 0V41.498l31.647 29.56a8 8 0 0 0 10.923-11.695z"/></svg><svg width="180" height="180" viewBox="0 0 180 180" id="icon-maneuver-18" x="3240"><path d="M29.377 13h14v141h-14z" opacity=".4"/><path d="M95.308 12.27a7.997 7.997 0 0 0-9.794 5.666 8 8 0 0 0 5.665 9.793l31.007 8.28-93.25 50.736V160a8 8 0 0 0 16 0V96.255l86.143-46.87-8.68 32.448a8 8 0 0 0 5.66 9.795 7.975 7.975 0 0 0 2.072.274 8.005 8.005 0 0 0 7.724-5.935L153.42 27.79 95.308 12.27z"/></svg><svg width="180" height="180" viewBox="0 0 180 180" id="icon-maneuver-19" x="3420"><path d="M136.9 13h14v141h-14z" opacity=".4"/><path d="M58.09 36.01l31.01-8.28a8 8 0 0 0 5.664-9.794 7.997 7.997 0 0 0-9.794-5.665L26.858 27.79l15.565 58.18a8.003 8.003 0 0 0 7.723 5.934c.684 0 1.38-.088 2.072-.274a8 8 0 0 0 5.66-9.795L49.2 49.388l86.144 46.87V160a8 8 0 0 0 16 0V86.746L58.092 36.01z"/></svg><svg width="180" height="180" viewBox="0 0 180 180" id="icon-maneuver-20" x="3600"><path d="M29.377 13h14v141h-14z" opacity=".4"/><path d="M95.308 12.27a7.997 7.997 0 0 0-9.794 5.666 8 8 0 0 0 5.665 9.793l31.007 8.28-93.25 50.736V160a8 8 0 0 0 16 0V96.255l86.143-46.87-8.68 32.448a8 8 0 0 0 5.66 9.795 7.975 7.975 0 0 0 2.072.274 8.005 8.005 0 0 0 7.724-5.935L153.42 27.79 95.308 12.27z"/></svg><svg width="180" height="180" viewBox="0 0 180 180" id="icon-maneuver-21" x="3780"><path d="M136.9 13h14v141h-14z" opacity=".4"/><path d="M58.09 36.01l31.01-8.28a8 8 0 0 0 5.664-9.794 7.997 7.997 0 0 0-9.794-5.665L26.858 27.79l15.565 58.18a8.003 8.003 0 0 0 7.723 5.934c.684 0 1.38-.088 2.072-.274a8 8 0 0 0 5.66-9.795L49.2 49.388l86.144 46.87V160a8 8 0 0 0 16 0V86.746L58.092 36.01z"/></svg><svg width="180" height="180" viewBox="0 0 180 180" id="icon-maneuver-22" x="3960"><path d="M139.183 59.363L88.14 11.69 40.43 62.817a8 8 0 0 0 .39 11.307 7.97 7.97 0 0 0 5.457 2.15 7.98 7.98 0 0 0 5.85-2.54l28.487-30.526V159a8 8 0 0 0 16 0V41.498l31.647 29.56a8 8 0 0 0 10.923-11.695z"/></svg><svg width="180" height="180" viewBox="0 0 180 180" id="icon-maneuver-23" x="4140"><path d="M29.377 13h14v141h-14z" opacity=".4"/><path d="M95.308 12.27a7.997 7.997 0 0 0-9.794 5.666 8 8 0 0 0 5.665 9.793l31.007 8.28-93.25 50.736V160a8 8 0 0 0 16 0V96.255l86.143-46.87-8.68 32.448a8 8 0 0 0 5.66 9.795 7.975 7.975 0 0 0 2.072.274 8.005 8.005 0 0 0 7.724-5.935L153.42 27.79 95.308 12.27z"/></svg><svg width="180" height="180" viewBox="0 0 180 180" id="icon-maneuver-24" x="4320"><path d="M136.9 13h14v141h-14z" opacity=".4"/><path d="M58.09 36.01l31.01-8.28a8 8 0 0 0 5.664-9.794 7.997 7.997 0 0 0-9.794-5.665L26.858 27.79l15.565 58.18a8.003 8.003 0 0 0 7.723 5.934c.684 0 1.38-.088 2.072-.274a8 8 0 0 0 5.66-9.795L49.2 49.388l86.144 46.87V160a8 8 0 0 0 16 0V86.746L58.092 36.01z"/></svg><svg width="180" height="180" viewBox="0 0 180 180" id="icon-maneuver-25" x="4500"><path d="M155.863 151c-30.06 0-54.54-24.52-54.88-54.787.003-.114.017-.226.017-.34V46.656l23.163 24.82a7.978 7.978 0 0 0 5.85 2.543 8 8 0 0 0 5.847-13.458L91.188 12.69 43.4 57.33a8 8 0 1 0 10.92 11.69L79 45.97v49.903c0 .106.013.21.016.314C78.688 126.467 54.202 151 24.136 151a8 8 0 0 0 0 16C53.98 167 79.56 148.314 90 121.953 100.437 148.313 126.017 167 155.862 167a8 8 0 0 0 0-16z"/></svg><svg width="180" height="180" viewBox="0 0 180 180" id="icon-maneuver-26" x="4680"><path opacity=".4" d="M153 64.29a7.002 7.002 0 0 0-8.872-4.392l-21.11 7.135c-5.315-7.015-13.083-12.07-22.018-13.878V27.003a7 7 0 0 0-14 0v26.045c-14.745 2.73-26.432 14.277-29.353 28.955H34a7 7 0 0 0 0 14h23.58a36.476 36.476 0 0 0 3.727 10.55l-17.52 10.114a7 7 0 0 0 7 12.125l19.518-11.268c6.36 5.262 14.516 8.428 23.396 8.428 20.273 0 36.767-16.492 36.767-36.764 0-3.275-.437-6.45-1.244-9.474l19.388-6.553a7 7 0 0 0 4.39-8.87zM93.7 111.95c-12.55 0-22.763-10.212-22.763-22.764S81.15 66.424 93.7 66.424c12.554 0 22.767 10.212 22.767 22.764s-10.213 22.764-22.766 22.764z"/><path d="M150.315 99.885L128.5 64.863l-34.934 21.78a8 8 0 0 0 8.464 13.577l13.258-8.266c-1.262 10.85-9.84 18.998-20.588 18.998a7.995 7.995 0 0 0-7 4.13 7.967 7.967 0 0 0-1.7 4.92v34a8 8 0 0 0 16 0v-27.77c14.143-2.816 25.137-13.71 28.438-27.998l6.298 10.11a7.99 7.99 0 0 0 6.798 3.77 7.997 7.997 0 0 0 6.78-12.23z"/></svg><svg width="180" height="180" viewBox="0 0 180 180" id="icon-maneuver-27" x="4860"><path d="M93 61.003a4 4 0 0 1-4-4v-28a4 4 0 0 1 8 0v28a4 4 0 0 1-4 4zM93 163.003a4 4 0 0 1-4-4v-27a4 4 0 0 1 8 0v27a4 4 0 0 1-4 4z" opacity=".4"/><path opacity=".4" d="M152.795 69.75a6.996 6.996 0 0 0-8.873-4.39l-21.546 7.284c-6.808-9.028-17.62-14.878-29.772-14.878-18.495 0-33.88 13.546-36.772 31.236H34a7 7 0 0 0 0 14h22.202a37.045 37.045 0 0 0 3.615 9.737l-17.912 10.34a7 7 0 0 0 7 12.125l19.918-11.5c6.458 5.366 14.748 8.598 23.78 8.598 20.55 0 37.27-16.718 37.27-37.268 0-3.36-.453-6.613-1.29-9.712l19.823-6.7a6.998 6.998 0 0 0 4.39-8.873zm-60.19 48.554c-6.943 0-13.182-3.06-17.448-7.898-.02-.023-.04-.048-.062-.072-3.58-4.093-5.758-9.443-5.758-15.297 0-12.83 10.438-23.27 23.268-23.27s23.27 10.438 23.27 23.27c0 12.83-10.44 23.267-23.27 23.267z"/><path d="M130.874 95.036c0-18.217-12.8-33.49-29.874-37.33V41.37l10.704 10.01a7.996 7.996 0 0 0 11.307-.378 7.998 7.998 0 0 0-.378-11.307L92.152 11.19 63.595 41.75a8 8 0 0 0 .384 11.306 7.97 7.97 0 0 0 5.46 2.155 7.98 7.98 0 0 0 5.846-2.537L85 42.276v18.727c0 .363.032.718.08 1.067a7.98 7.98 0 0 0-.477 2.696 8 8 0 0 0 8 8c12.28 0 22.27 9.99 22.27 22.27 0 12.007-8.64 21.508-19.91 22.22a7.996 7.996 0 0 0-1.963-.253 8 8 0 0 0-8 8v34a8 8 0 0 0 16 0v-26.427c17.238-3.43 29.874-18.69 29.874-37.54z"/></svg><svg width="180" height="180" viewBox="0 0 180 180" id="icon-maneuver-28" x="5040"><path fill-rule="evenodd" clip-rule="evenodd" d="M107.63 157.76c-2.81 5.415-7.57 8.033-13.646 8.12-6.367.1-11.348-2.518-14.336-8.19-1.46 3.504-4.277 5.65-7.785 7.067-4.225 1.672-8.533 1.643-12.732.03-4.91-1.88-6.923-5.677-7.274-10.4-.05-.652 0-1.33 0-2.173 2.8 3.773 6.973 4.596 11.24 5.067 3.285.37 6.594.132 9.77-.783 2.773-.815 5.348-1.904 6.836-4.597 1.475 2.65 3.984 3.812 6.717 4.545 5.052 1.37 10.14 1.323 15.165-.192 2.883-.876 4.385-1.97 6.05-4.273 2.01 3.29 5.44 4.355 9.04 4.992 4.596.815 9.168.594 13.592-.984 2.174-.775 4.08-1.883 5.238-4.038 2.676 4.02 7.033 4.895 11.49 5.332 4.48.422 8.934.012 12.965-2.104 1.27-.67 2.307-1.72 3.318-2.504.74 5.454-2.273 10.433-7.307 12.18-5.503 1.895-10.747 1.41-15.634-1.678-2.217-1.425-3.105-2.47-4.746-5.398-2.848 5.445-7.73 8.09-13.95 8.112-6.238.012-11.148-2.598-14.01-8.13z" opacity=".4"/><path d="M36.776 80.89a6 6 0 0 1-4.38-10.098L52.81 48.96 30.897 28.483a6 6 0 1 1 8.193-8.767l30.687 28.672-28.618 30.6a5.98 5.98 0 0 1-4.384 1.903z"/><path d="M56.807 54.674H16.61a6 6 0 0 1 0-12h40.196a6 6 0 0 1 0 12z"/><path fill-rule="evenodd" clip-rule="evenodd" d="M164.143 96.956l-10.366-5.14-4.88-24.052a5.507 5.507 0 0 0-3.345-4.012l-8.422-3.375-2.11-19.59a5.5 5.5 0 0 0-4.3-4.785l-7.92-1.72V19.77a5.5 5.5 0 0 0-5.5-5.5H96.31a5.5 5.5 0 0 0-5.5 5.5v14.51L82.89 36a5.503 5.503 0 0 0-4.3 4.785l-2.112 19.59-8.42 3.375a5.5 5.5 0 0 0-3.345 4.012l-4.888 24.093L49.65 96.97a5.5 5.5 0 0 0-2.758 6.62L57.6 136.4a5.5 5.5 0 0 0 .836 1.605c2.725 3.613 5.974 7.164 13.015 7.456.166.007.34.01.524.01 1.098 0 3.197-.147 5.558-1.075 3.426 2.967 8.404 4.633 14.256 4.633 4.634 0 10.594-1.183 15.123-4.245 4.53 3.062 10.49 4.245 15.123 4.245 5.852 0 10.83-1.667 14.256-4.634a15.47 15.47 0 0 0 5.556 1.077c.185 0 .36-.003.532-.01 7.036-.29 10.284-3.843 13.007-7.457a5.503 5.503 0 0 0 .836-1.604l10.708-32.81a5.5 5.5 0 0 0-2.785-6.634zm-55.16-27.347a5.494 5.494 0 0 0-4.914.013L72.322 85.576l2.58-12.717 8.734-3.5a5.502 5.502 0 0 0 3.423-4.517L89.1 45.91l8.378-1.82a5.475 5.475 0 0 0 1.857-.793h14.938a5.492 5.492 0 0 0 1.857.793l8.376 1.82 2.04 18.932a5.505 5.505 0 0 0 3.423 4.517l8.735 3.5 2.59 12.77-32.313-16.02z"/></svg><svg width="180" height="180" viewBox="0 0 180 180" id="icon-maneuver-29" x="5220"><path fill-rule="evenodd" clip-rule="evenodd" d="M107.63 157.76c-2.81 5.415-7.57 8.033-13.646 8.12-6.367.1-11.348-2.518-14.336-8.19-1.46 3.504-4.277 5.65-7.785 7.067-4.225 1.672-8.533 1.643-12.732.03-4.91-1.88-6.923-5.677-7.274-10.4-.05-.652 0-1.33 0-2.173 2.8 3.773 6.973 4.596 11.24 5.067 3.285.37 6.594.132 9.77-.783 2.773-.815 5.348-1.904 6.836-4.597 1.475 2.65 3.984 3.812 6.717 4.545 5.052 1.37 10.14 1.323 15.165-.192 2.883-.876 4.385-1.97 6.05-4.273 2.01 3.29 5.44 4.355 9.04 4.992 4.596.815 9.168.594 13.592-.984 2.174-.775 4.08-1.883 5.238-4.038 2.676 4.02 7.033 4.895 11.49 5.332 4.48.422 8.934.012 12.965-2.104 1.27-.67 2.307-1.72 3.318-2.504.74 5.454-2.273 10.433-7.307 12.18-5.503 1.895-10.747 1.41-15.634-1.678-2.217-1.425-3.105-2.47-4.746-5.398-2.848 5.445-7.73 8.09-13.95 8.112-6.238.012-11.148-2.598-14.01-8.13z" opacity=".4"/><path d="M41.13 80.89a5.986 5.986 0 0 1-4.383-1.9L8.13 48.388l30.686-28.672a6 6 0 1 1 8.193 8.767L25.094 48.96 45.51 70.792a6 6 0 0 1-4.38 10.1z"/><path d="M61.295 54.674H21.1a6 6 0 0 1 0-12h40.195a6 6 0 0 1 0 12z"/><path fill-rule="evenodd" clip-rule="evenodd" d="M164.143 96.956l-10.366-5.14-4.88-24.052a5.507 5.507 0 0 0-3.345-4.012l-8.422-3.375-2.11-19.59a5.5 5.5 0 0 0-4.3-4.785l-7.92-1.72V19.77a5.5 5.5 0 0 0-5.5-5.5H96.31a5.5 5.5 0 0 0-5.5 5.5v14.51L82.89 36a5.503 5.503 0 0 0-4.3 4.785l-2.112 19.59-8.42 3.375a5.5 5.5 0 0 0-3.345 4.012l-4.888 24.093L49.65 96.97a5.5 5.5 0 0 0-2.758 6.62L57.6 136.4a5.5 5.5 0 0 0 .836 1.605c2.725 3.613 5.974 7.164 13.015 7.456.166.007.34.01.524.01 1.098 0 3.197-.147 5.558-1.075 3.426 2.967 8.404 4.633 14.256 4.633 4.634 0 10.594-1.183 15.123-4.245 4.53 3.062 10.49 4.245 15.123 4.245 5.852 0 10.83-1.667 14.256-4.634a15.47 15.47 0 0 0 5.556 1.077c.185 0 .36-.003.532-.01 7.036-.29 10.284-3.843 13.007-7.457a5.503 5.503 0 0 0 .836-1.604l10.708-32.81a5.5 5.5 0 0 0-2.785-6.634zm-55.16-27.347a5.494 5.494 0 0 0-4.914.013L72.323 85.576l2.58-12.717 8.733-3.5a5.502 5.502 0 0 0 3.423-4.517L89.1 45.91l8.378-1.82a5.475 5.475 0 0 0 1.857-.793h14.938a5.492 5.492 0 0 0 1.857.793l8.376 1.82 2.04 18.932a5.505 5.505 0 0 0 3.423 4.517l8.735 3.5 2.59 12.77-32.313-16.02z"/></svg><svg width="180" height="180" viewBox="0 0 180 180" id="icon-transit-type-bus" x="5400"><path d="M140.142 47.383h-1.397v-9c0-6.6-5.547-10.615-12-12-9.316-2-21.384-4-36.942-4-16.212 0-26.624 1.75-36.545 4-6.436 1.46-12 5.4-12 12v9H39.86c-3.3 0-6 2.7-6 6v8c0 3.3 2.7 6 6 6h1.398v52.344c0 5.882 4.293 10.008 9.898 10.837v10.132c0 3.3 2.7 6 6 6h2.796c3.3 0 6-2.7 6-6v-9.97h48.056v9.97c0 3.3 2.7 6 6 6h2.796c3.3 0 6-2.7 6-6V130.57c5.626-.815 9.94-4.946 9.94-10.843V67.383h1.398c3.3 0 6-2.7 6-6v-8c0-3.3-2.7-6-6-6zM74.61 35.557a2 2 0 0 1 2-2h27.194a2 2 0 0 1 2 2V37.1a2 2 0 0 1-2 2H76.61a2 2 0 0 1-2-2v-1.543zm-13.846 84.68c-4.88-.115-8.53-4.016-8.463-8.986.077-4.667 4.034-8.426 8.823-8.353 4.793.076 8.678 4.023 8.596 8.76-.097 4.85-4.09 8.673-8.956 8.58zm-7.33-24.925a2 2 0 0 1-2-2v-43.54a2 2 0 0 1 2-2h72.646a2 2 0 0 1 2 2v43.54a2 2 0 0 1-2 2H53.434zm56.447 16.372c-.015-5.02 3.78-8.817 8.757-8.79 4.764 0 8.562 3.842 8.578 8.59.006 4.962-3.773 8.73-8.723 8.74-4.775.01-8.6-3.783-8.61-8.54z"/></svg><svg width="180" height="180" viewBox="0 0 180 180" id="icon-transit-type-cable_car" x="5580"><path d="M98.15 27.188l-1.89-3.466c-.617-1.133-2.006-2.06-3.086-2.06h-6.35c-1.08 0-2.47.927-3.086 2.06l-1.89 3.466h16.3zM125.045 29.933h-70.09v4.977h3.81v9.75h62.47v-9.75h3.81v-4.977zm-22.447 9.19a2 2 0 0 1-2 2H79.402a2 2 0 0 1-2-2V37.58a2 2 0 0 1 2-2h21.195a2 2 0 0 1 2 2v1.543zM143.353 134.92a2.5 2.5 0 0 1-2.487-2.5V71.66a2.5 2.5 0 0 1 2.488-2.5 2.5 2.5 0 0 1 2.487 2.5v60.76a2.5 2.5 0 0 1-2.487 2.5zM36.768 134.92a2.5 2.5 0 0 1-2.487-2.5V71.66a2.5 2.5 0 0 1 2.488-2.5 2.5 2.5 0 0 1 2.488 2.5v60.76a2.5 2.5 0 0 1-2.488 2.5zM136.744 147.86v-7.393H43.256v7.392h-11.05v4.976h14.05v-4.977H62.36c-3.543 3.598-7.224 7-10.832 10.487-1.02.986-2.073 1.937-3.057 2.972-.606.642-1.334 1.6-1.058 2.728.13.543.436.988.747 1.37.555.68.96.578 1.692.578h80.295c.733 0 1.138.102 1.694-.578.313-.382.616-.827.747-1.37.276-1.13-.45-2.086-1.06-2.73-.982-1.034-2.035-1.984-3.056-2.97-3.607-3.49-7.288-6.89-10.83-10.49h16.103v4.978h14.05v-4.977h-11.05zM136.744 46.946H43.256v61.488h93.488V46.946zM73.14 102.613H48.27V63.07c0-1.103 1.24-2.304 2.24-3 4.504-3.127 10.364-3.992 15.588-2.323 1.557.497 3.168 1.187 4.57 2.028 1.373.824 2.473 1.88 2.473 3.296v39.543zm29.296 0H77.564V63.07c0-1.103 1.24-2.304 2.24-3 4.504-3.127 10.364-3.992 15.588-2.323 1.557.497 3.168 1.187 4.57 2.028 1.373.824 2.473 1.88 2.473 3.296v39.543zm29.294 0h-24.87V63.07c0-1.103 1.238-2.304 2.24-3 4.503-3.127 10.363-3.992 15.587-2.323 1.557.497 3.168 1.187 4.57 2.028 1.373.824 2.473 1.88 2.473 3.296v39.543zM136.744 112.435H43.256v24.033h93.488v-24.033zm-46.97 19.88c-4.467-.105-7.805-3.674-7.744-8.224.07-4.27 3.69-7.71 8.072-7.643 4.388.067 7.943 3.68 7.867 8.016-.086 4.44-3.743 7.937-8.195 7.853z"/></svg><svg width="180" height="180" viewBox="0 0 180 180" id="icon-transit-type-ferry" x="5760"><path fill-rule="evenodd" clip-rule="evenodd" d="M90.72 156.76c-2.81 5.415-7.57 8.033-13.646 8.12-6.367.1-11.348-2.518-14.336-8.19-1.46 3.504-4.277 5.65-7.785 7.067-4.225 1.672-8.533 1.643-12.732.03-4.91-1.88-6.923-5.677-7.274-10.4-.05-.652 0-1.33 0-2.173 2.8 3.773 6.973 4.596 11.24 5.067 3.285.37 6.594.132 9.77-.783 2.773-.815 5.348-1.904 6.836-4.597 1.475 2.65 3.984 3.812 6.717 4.545 5.052 1.37 10.14 1.323 15.165-.192 2.883-.876 4.385-1.97 6.05-4.273 2.01 3.29 5.44 4.355 9.04 4.992 4.596.815 9.168.594 13.592-.984 2.174-.775 4.08-1.883 5.238-4.038 2.676 4.02 7.033 4.895 11.49 5.332 4.48.422 8.934.012 12.965-2.104 1.27-.67 2.307-1.72 3.318-2.504.74 5.454-2.273 10.433-7.307 12.18-5.503 1.895-10.747 1.41-15.634-1.678-2.217-1.425-3.105-2.47-4.746-5.398-2.848 5.445-7.73 8.09-13.95 8.112-6.238.012-11.148-2.598-14.01-8.13zM147.232 99.956l-10.366-5.14-4.88-24.052a5.507 5.507 0 0 0-3.345-4.012l-8.42-3.375-2.11-17.59a5.5 5.5 0 0 0-4.302-4.785l-7.92-1.72V27.77a5.5 5.5 0 0 0-5.5-5.5H79.4a5.5 5.5 0 0 0-5.5 5.5v11.51L65.98 41a5.503 5.503 0 0 0-4.3 4.785l-2.113 17.59-8.42 3.375a5.5 5.5 0 0 0-3.345 4.012l-4.888 24.093L32.74 99.97a5.5 5.5 0 0 0-2.758 6.62L40.69 135.4a5.5 5.5 0 0 0 .836 1.605c2.725 3.613 5.974 7.164 13.015 7.456.166.007.34.01.524.01 1.098 0 3.197-.147 5.558-1.075 3.426 2.967 8.404 4.633 14.256 4.633 4.634 0 10.594-1.183 15.123-4.245 4.53 3.062 10.49 4.245 15.123 4.245 5.852 0 10.83-1.667 14.256-4.634a15.47 15.47 0 0 0 5.556 1.077c.185 0 .36-.003.532-.01 7.036-.29 10.284-3.843 13.007-7.457a5.503 5.503 0 0 0 .836-1.604l10.708-28.81a5.5 5.5 0 0 0-2.786-6.634zM92.072 72.61a5.494 5.494 0 0 0-4.913.013L55.413 88.576l2.58-12.717 8.733-3.5a5.502 5.502 0 0 0 3.423-4.517l2.04-16.934 8.378-1.82a5.475 5.475 0 0 0 1.857-.793h14.938a5.492 5.492 0 0 0 1.857.793l8.376 1.82 2.04 16.932a5.505 5.505 0 0 0 3.423 4.517l8.735 3.5 2.59 12.77-32.313-16.02z"/></svg><svg width="180" height="180" viewBox="0 0 180 180" id="icon-transit-type-funicular" x="5940"><path d="M148.61 30.292c-.952-.57-2.376-.8-3.41-.526-8.724 2.298-14.11 3.773-19.816 5.335a2518.11 2518.11 0 0 1-15.84 4.298c-25.034 6.7-50.066 13.398-75.098 20.1l-1.374.364c-1.66.44-3.378.894-5.057 1.404-1.658.504-2.542 1.854-2.305 3.52.238 1.68 1.454 2.677 3.337 2.74l.117.004.436-.083c.33-.06.728-.132 1.116-.236 10.823-2.887 21.646-5.778 32.466-8.676 14.212-3.806 25.77-6.938 37.326-10.07s23.112-6.266 37.322-10.07c.934-.25 1.87-.492 2.805-.733 2.156-.556 4.386-1.13 6.56-1.805 1-.312 2.033-1.296 2.46-2.34.4-.978-.157-2.695-1.044-3.223z"/><path fill-rule="evenodd" clip-rule="evenodd" d="M96.38 53.017c.467 2.48 1.1 5.866 1.53 8.188 1.01 5.5 2.03 10.997 2.998 16.505.157.894.51 1.248 1.415 1.19.93-.065 1.87-.048 2.804-.013 1.49.058 2.132.73 2.195 2.232.155 3.67.155 3.658-3.533 3.653-7.44-.008-14.876-.022-22.312.02-1.13.006-1.688-.237-1.512-1.48.094-.668.01-1.358.02-2.04.03-1.665.626-2.296 2.308-2.38.89-.043 1.787-.066 2.676-.007.86.06 1.207-.32 1.35-1.124 1.1-6.128 2.338-12.236 3.274-18.392.51-3.34 4.025-4.63 6.785-6.353zM84.147 36.342c-.047 3.142-2.37 5.372-5.563 5.342-3.005-.026-5.583-2.623-5.503-5.538.092-3.23 2.62-5.555 5.987-5.497 2.896.047 5.128 2.55 5.08 5.692zM117.68 27.324c.01 2.896-2.526 5.436-5.424 5.427-3.18-.008-5.648-2.404-5.663-5.498-.017-3.057 2.528-5.6 5.587-5.586 3.108.016 5.488 2.462 5.5 5.658zM61.764 46.103c-3.023-.078-5.52-2.646-5.43-5.587.085-2.924 2.77-5.533 5.655-5.5 2.99.033 5.61 2.75 5.518 5.72-.1 3.187-2.52 5.45-5.744 5.367zM100.9 31.802c.024 2.922-2.484 5.48-5.374 5.48-2.984 0-5.654-2.534-5.69-5.405-.04-3.125 2.462-5.707 5.614-5.796 2.953-.082 5.427 2.515 5.45 5.722zM146.07 131.44c-1.99-11.46-4.005-22.912-6.123-34.348-1.12-6.054-4.935-9.09-11.03-9.09-23.456.004-46.914.004-70.37.016-6.498.002-10.3 3.195-11.446 9.6-1.94 10.847-3.84 21.7-5.82 32.54-.377 2.067-.278 4.023.32 6.026 1.15 3.86 2.162 7.764 3.303 11.626 1.082 3.666 2.03 7.394 3.443 10.93 1.912 4.792 5.392 7.312 10.896 7.215 11.493-.205 22.993-.062 34.492-.062v.016c3.985 0 7.97 0 11.955-.002 7.82-.005 15.637-.044 23.455-.004 3.46.018 6.182-1.354 8.026-4.208 1.096-1.695 2.12-3.535 2.7-5.453 2.13-7.078 4.095-14.208 6.038-21.343a8.25 8.25 0 0 0 .16-3.46zm-74.393-2.464c-.003 2.948-1.038 4.136-3.602 4.14a4486.2 4486.2 0 0 1-13.227-.004c-2.542-.004-3.552-1.348-3.073-4.175 1.605-9.54 3.23-19.076 4.867-28.61.438-2.556 1.198-3.242 3.463-3.25 2.798-.01 5.597-.01 8.395 0 2.282.01 3.174 1.01 3.177 3.57.008 4.722.004 9.443.004 14.165 0 4.72.006 9.44-.003 14.164zm18.155 23.977c0 2.65-.96 3.928-2.968 3.968-1.48.03-2.962.025-4.44.003-1.998-.03-2.906-1.212-2.91-3.84-.012-8.77-.004-17.54-.004-26.312-.002-8.722-.006-17.444 0-26.166.002-2.554.725-3.508 2.662-3.526 1.702-.017 3.405-.024 5.107.003 1.775.03 2.552 1.064 2.552 3.395.005 17.49.006 34.984 0 52.478zm17.536-.232c0 2.982-.854 4.176-2.98 4.205-1.185.016-2.372-.013-3.558 0-2.082.02-2.92-1.13-2.92-4.07-.006-8.722-.004-17.442-.004-26.16 0-8.722-.002-17.443.003-26.164 0-2.452.674-3.43 2.383-3.45 1.56-.02 3.12-.026 4.68 0 1.686.03 2.395 1.063 2.396 3.465a181489 181489 0 0 1-.002 52.176zm25.08-19.618c-4.905.042-9.81.032-14.717.005-2.05-.013-3.124-1.307-3.138-3.764-.024-4.864-.007-9.73-.007-14.597 0-4.72-.007-9.442.003-14.162.004-2.58.848-3.498 3.214-3.507 3.03-.014 6.065-.015 9.098.002 1.97.01 2.902.74 3.29 2.834 1.453 7.827 2.845 15.665 4.263 23.498.342 1.888.705 3.77 1.04 5.66.445 2.543-.623 4.01-3.044 4.03z"/></svg><svg width="180" height="180" viewBox="0 0 180 180" id="icon-transit-type-gondola" x="6120"><path d="M148.61 30.292c-.952-.57-2.376-.8-3.41-.526-8.724 2.298-14.11 3.773-19.816 5.335a2518.11 2518.11 0 0 1-15.84 4.298c-25.034 6.7-50.066 13.398-75.098 20.1l-1.374.364c-1.66.44-3.378.894-5.057 1.404-1.658.504-2.542 1.854-2.305 3.52.238 1.68 1.454 2.677 3.337 2.74l.117.004.436-.083c.33-.06.728-.132 1.116-.236 10.823-2.887 21.646-5.778 32.466-8.676 14.212-3.806 25.77-6.938 37.326-10.07s23.112-6.266 37.322-10.07c.934-.25 1.87-.492 2.805-.733 2.156-.556 4.386-1.13 6.56-1.805 1-.312 2.033-1.296 2.46-2.34.4-.978-.157-2.695-1.044-3.223z"/><path fill-rule="evenodd" clip-rule="evenodd" d="M96.38 53.017c.467 2.48 1.1 5.866 1.53 8.188 1.01 5.5 2.03 10.997 2.998 16.505.157.894.51 1.248 1.415 1.19.93-.065 1.87-.048 2.804-.013 1.49.058 2.132.73 2.195 2.232.155 3.67.155 3.658-3.533 3.653-7.44-.008-14.876-.022-22.312.02-1.13.006-1.688-.237-1.512-1.48.094-.668.01-1.358.02-2.04.03-1.665.626-2.296 2.308-2.38.89-.043 1.787-.066 2.676-.007.86.06 1.207-.32 1.35-1.124 1.1-6.128 2.338-12.236 3.274-18.392.51-3.34 4.025-4.63 6.785-6.353zM84.147 36.342c-.047 3.142-2.37 5.372-5.563 5.342-3.005-.026-5.583-2.623-5.503-5.538.092-3.23 2.62-5.555 5.987-5.497 2.896.047 5.128 2.55 5.08 5.692zM117.68 27.324c.01 2.896-2.526 5.436-5.424 5.427-3.18-.008-5.648-2.404-5.663-5.498-.017-3.057 2.528-5.6 5.587-5.586 3.108.016 5.488 2.462 5.5 5.658zM61.764 46.103c-3.023-.078-5.52-2.646-5.43-5.587.085-2.924 2.77-5.533 5.655-5.5 2.99.033 5.61 2.75 5.518 5.72-.1 3.187-2.52 5.45-5.744 5.367zM100.9 31.802c.024 2.922-2.484 5.48-5.374 5.48-2.984 0-5.654-2.534-5.69-5.405-.04-3.125 2.462-5.707 5.614-5.796 2.953-.082 5.427 2.515 5.45 5.722zM146.07 131.44c-1.99-11.46-4.005-22.912-6.123-34.348-1.12-6.054-4.935-9.09-11.03-9.09-23.456.004-46.914.004-70.37.016-6.498.002-10.3 3.195-11.446 9.6-1.94 10.847-3.84 21.7-5.82 32.54-.377 2.067-.278 4.023.32 6.026 1.15 3.86 2.162 7.764 3.303 11.626 1.082 3.666 2.03 7.394 3.443 10.93 1.912 4.792 5.392 7.312 10.896 7.215 11.493-.205 22.993-.062 34.492-.062v.016c3.985 0 7.97 0 11.955-.002 7.82-.005 15.637-.044 23.455-.004 3.46.018 6.182-1.354 8.026-4.208 1.096-1.695 2.12-3.535 2.7-5.453 2.13-7.078 4.095-14.208 6.038-21.343a8.25 8.25 0 0 0 .16-3.46zm-74.393-2.464c-.003 2.948-1.038 4.136-3.602 4.14a4486.2 4486.2 0 0 1-13.227-.004c-2.542-.004-3.552-1.348-3.073-4.175 1.605-9.54 3.23-19.076 4.867-28.61.438-2.556 1.198-3.242 3.463-3.25 2.798-.01 5.597-.01 8.395 0 2.282.01 3.174 1.01 3.177 3.57.008 4.722.004 9.443.004 14.165 0 4.72.006 9.44-.003 14.164zm18.155 23.977c0 2.65-.96 3.928-2.968 3.968-1.48.03-2.962.025-4.44.003-1.998-.03-2.906-1.212-2.91-3.84-.012-8.77-.004-17.54-.004-26.312-.002-8.722-.006-17.444 0-26.166.002-2.554.725-3.508 2.662-3.526 1.702-.017 3.405-.024 5.107.003 1.775.03 2.552 1.064 2.552 3.395.005 17.49.006 34.984 0 52.478zm17.536-.232c0 2.982-.854 4.176-2.98 4.205-1.185.016-2.372-.013-3.558 0-2.082.02-2.92-1.13-2.92-4.07-.006-8.722-.004-17.442-.004-26.16 0-8.722-.002-17.443.003-26.164 0-2.452.674-3.43 2.383-3.45 1.56-.02 3.12-.026 4.68 0 1.686.03 2.395 1.063 2.396 3.465a181489 181489 0 0 1-.002 52.176zm25.08-19.618c-4.905.042-9.81.032-14.717.005-2.05-.013-3.124-1.307-3.138-3.764-.024-4.864-.007-9.73-.007-14.597 0-4.72-.007-9.442.003-14.162.004-2.58.848-3.498 3.214-3.507 3.03-.014 6.065-.015 9.098.002 1.97.01 2.902.74 3.29 2.834 1.453 7.827 2.845 15.665 4.263 23.498.342 1.888.705 3.77 1.04 5.66.445 2.543-.623 4.01-3.044 4.03z"/></svg><svg width="180" height="180" viewBox="0 0 180 180" id="icon-transit-type-metro" x="6300"><path d="M145.163 161.32c-1.307-1.036-2.705-1.986-4.062-2.973-5.016-3.65-10.143-7.2-15.05-10.99 5.99-.655 10.693-5.766 10.693-11.924v-75.75c0-6.6-5.4-12-12-12H55.257c-6.6 0-12 5.4-12 12v75.75c0 6.158 4.703 11.27 10.694 11.925-4.907 3.788-10.034 7.338-15.05 10.99-1.357.985-2.756 1.936-4.063 2.97-.806.644-1.772 1.6-1.405 2.73.173.543.578.988.99 1.37.74.68 1.277.578 2.25.578h106.654c.974 0 1.51.102 2.25-.578.413-.382.818-.827.99-1.37.37-1.13-.597-2.086-1.403-2.73zm-84.136-25.78c-4.88-.117-8.53-4.018-8.464-8.988.077-4.668 4.033-8.427 8.822-8.354 4.794.076 8.68 4.023 8.597 8.76-.095 4.85-4.09 8.673-8.955 8.58zm24.875-27.927a2 2 0 0 1-2 2H52.696a2 2 0 0 1-2-2V74.07a2 2 0 0 1 2-2h31.206a2 2 0 0 1 2 2v33.543zm8.246 0V74.07a2 2 0 0 1 2-2h31.195a2 2 0 0 1 2 2v33.543a2 2 0 0 1-2 2H96.148a2 2 0 0 1-2-2zM76.608 60.4v-1.543a2 2 0 0 1 2-2h23.196a2 2 0 0 1 2 2V60.4a2 2 0 0 1-2 2H78.61a2 2 0 0 1-2-2zm42.147 75.125c-4.775.01-8.6-3.783-8.61-8.54-.016-5.022 3.78-8.818 8.756-8.792 4.765 0 8.563 3.843 8.58 8.59.003 4.963-3.775 8.73-8.725 8.742z"/><path d="M160.062 165.996h-8v-88.01c0-27.02-21.98-49-49-49H76.938c-27.02 0-49 21.98-49 49v88.01h-8v-88.01c0-31.43 25.57-57 57-57h26.125c31.43 0 57 25.57 57 57v88.01z"/></svg><svg width="180" height="180" viewBox="0 0 180 180" id="icon-transit-type-rail" x="6480"><path d="M147.162 161.32c-1.307-1.036-2.705-1.986-4.06-2.973-5.02-3.65-10.146-7.2-15.052-10.99 5.99-.655 10.693-5.766 10.693-11.924v-90.75c0-6.6-5.4-12-12-12h-15.98l-4.812-6.9c-1.573-2.254-5.11-4.1-7.86-4.1H81.908c-2.75 0-6.287 1.846-7.86 4.1l-4.813 6.9h-15.98c-6.6 0-12 5.4-12 12v90.75c0 6.158 4.704 11.27 10.696 11.925-4.907 3.788-10.034 7.338-15.052 10.99-1.355.985-2.754 1.936-4.06 2.97-.808.644-1.774 1.6-1.407 2.73.175.543.58.988.993 1.37.738.68 1.275.578 2.25.578h110.652c.975 0 1.512.102 2.25-.578.414-.382.818-.827.992-1.37.37-1.13-.598-2.086-1.405-2.73zm-86.398-25.78c-4.88-.117-8.53-4.018-8.463-8.988.077-4.668 4.034-8.427 8.823-8.354 4.793.076 8.678 4.023 8.596 8.76-.097 4.85-4.09 8.673-8.956 8.58zm24.875-29.927a2 2 0 0 1-2 2H50.433a2 2 0 0 1-2-2V65.07a2 2 0 0 1 2-2H83.64a2 2 0 0 1 2 2v40.543zm-4.57-62.988c.035-4.764 3.982-8.7 8.715-8.714 4.814-.005 8.68 3.94 8.67 8.847-.01 4.716-3.865 8.557-8.604 8.55-4.88 0-8.827-3.9-8.78-8.682zm12.815 62.988V65.07a2 2 0 0 1 2-2h33.195a2 2 0 0 1 2 2v40.543a2 2 0 0 1-2 2H95.885a2 2 0 0 1-2-2zm24.607 29.912c-4.775.01-8.6-3.783-8.61-8.54-.017-5.022 3.778-8.818 8.755-8.792 4.764 0 8.562 3.843 8.578 8.59.006 4.963-3.774 8.73-8.723 8.742z"/></svg><svg width="180" height="180" viewBox="0 0 180 180" id="icon-transit-type-tram" x="6660"><path d="M147.162 161.32c-1.307-1.036-2.705-1.986-4.06-2.973-5.02-3.65-10.146-7.2-15.052-10.99 5.99-.655 10.693-5.766 10.693-11.924v-74.75c0-6.6-5.4-12-12-12h-25.155l8.622-17.934c.137-.237.195-.496.195-.75h4.7c.282.025.866.367 1.013.577l3.77 6.693a3.998 3.998 0 0 0 5.45 1.522 4 4 0 0 0 1.52-5.448l-3.77-6.693c-1.518-2.694-4.863-4.65-7.957-4.65H64.866c-3.092 0-6.44 1.956-7.957 4.65l-3.77 6.694a4 4 0 0 0 6.97 3.926l3.756-6.672c.162-.23.746-.573 1-.6h4.73c0 .256.058.514.194.75l8.622 17.934H53.256c-6.6 0-12 5.4-12 12v74.75c0 6.158 4.703 11.27 10.695 11.925-4.907 3.788-10.034 7.338-15.052 10.99-1.355.985-2.754 1.936-4.06 2.97-.808.644-1.774 1.6-1.407 2.73.175.543.58.988.993 1.37.738.68 1.275.578 2.25.578h110.652c.975 0 1.512.102 2.25-.578.414-.382.818-.827.992-1.37.37-1.128-.598-2.085-1.405-2.728zm-58.8-112.636C88.36 48.43 78.545 30 78.545 30h22.908s-9.817 18.43-9.817 18.684H88.36zM60.763 135.54c-4.88-.117-8.53-4.018-8.463-8.988.077-4.668 4.034-8.427 8.823-8.354 4.793.076 8.678 4.023 8.596 8.76-.097 4.85-4.09 8.673-8.956 8.58zm57.728-.015c-4.775.01-8.6-3.783-8.61-8.54-.017-5.022 3.778-8.818 8.755-8.792 4.764 0 8.562 3.843 8.578 8.59.006 4.963-3.774 8.73-8.723 8.742zm7.588-27.912H53.434a2 2 0 0 1-2-2V66.07a2 2 0 0 1 2-2h72.646a2 2 0 0 1 2 2v39.543a2 2 0 0 1-2 2z"/></svg></svg>