<svg xmlns="http://www.w3.org/2000/svg" viewBox="0 0 189 189"><title>cancel</title><path d="M94.7 83.9c5.2-5.3 10.2-10.4 15.2-15.4 6.8-6.8 13.6-13.7 20.5-20.5 5-5 9.1-5.6 12.9-1.9 3.6 3.5 3 8.4-1.6 13l-31.8 31.8c-1.5 1.3-3.2 2.4-4.9 3.3 2.3 2.4 3.5 3.7 4.7 5l32.5 32.5c4.1 4.1 4.5 8.9 1.2 12.3s-8.1 3.1-12.3-1c-10.9-10.8-21.7-21.6-32.5-32.5-1.3-1.3-1.9-3.2-2.8-4.8l-2.3.5c-3.1 3.4-6 7-9.3 10.3-8.8 8.9-17.6 17.7-26.5 26.5-4.2 4.1-8.9 4.4-12.3 1s-2.9-8.2 1.2-12.3c10.8-10.9 21.6-21.7 32.5-32.5 1.3-1.3 2.5-2.6 4.1-4.3-12.1-12-24-23.7-35.7-35.4-1.5-1.5-3.2-3.2-3.8-5.1-1.2-3.6-.4-7 3-9.2 3.8-2.4 7.2-1.7 10.4 1.5 11 11.1 22.1 22.2 33.2 33.2 1.4 1.2 2.7 2.4 4.4 4z"/></svg>