<?xml version="1.0" encoding="utf-8"?><!DOCTYPE svg PUBLIC "-//W3C//DTD SVG 1.1//EN" "http://www.w3.org/Graphics/SVG/1.1/DTD/svg11.dtd"><svg width="1440" height="180" viewBox="0 0 1440 180" xmlns="http://www.w3.org/2000/svg" xmlns:xlink="http://www.w3.org/1999/xlink"><svg width="180" height="180" viewBox="0 0 180 180" id="icon-transit-type-bus"><path d="M140.142 47.383h-1.397v-9c0-6.6-5.547-10.615-12-12-9.316-2-21.384-4-36.942-4-16.212 0-26.624 1.75-36.545 4-6.436 1.46-12 5.4-12 12v9H39.86c-3.3 0-6 2.7-6 6v8c0 3.3 2.7 6 6 6h1.398v52.344c0 5.882 4.293 10.008 9.898 10.837v10.132c0 3.3 2.7 6 6 6h2.796c3.3 0 6-2.7 6-6v-9.97h48.056v9.97c0 3.3 2.7 6 6 6h2.796c3.3 0 6-2.7 6-6V130.57c5.626-.815 9.94-4.946 9.94-10.843V67.383h1.398c3.3 0 6-2.7 6-6v-8c0-3.3-2.7-6-6-6zM74.61 35.557a2 2 0 0 1 2-2h27.194a2 2 0 0 1 2 2V37.1a2 2 0 0 1-2 2H76.61a2 2 0 0 1-2-2v-1.543zm-13.846 84.68c-4.88-.115-8.53-4.016-8.463-8.986.077-4.667 4.034-8.426 8.823-8.353 4.793.076 8.678 4.023 8.596 8.76-.097 4.85-4.09 8.673-8.956 8.58zm-7.33-24.925a2 2 0 0 1-2-2v-43.54a2 2 0 0 1 2-2h72.646a2 2 0 0 1 2 2v43.54a2 2 0 0 1-2 2H53.434zm56.447 16.372c-.015-5.02 3.78-8.817 8.757-8.79 4.764 0 8.562 3.842 8.578 8.59.006 4.962-3.773 8.73-8.723 8.74-4.775.01-8.6-3.783-8.61-8.54z"/></svg><svg width="180" height="180" viewBox="0 0 180 180" id="icon-transit-type-cable_car" x="180"><path d="M98.15 27.188l-1.89-3.466c-.617-1.133-2.006-2.06-3.086-2.06h-6.35c-1.08 0-2.47.927-3.086 2.06l-1.89 3.466h16.3zM125.045 29.933h-70.09v4.977h3.81v9.75h62.47v-9.75h3.81v-4.977zm-22.447 9.19a2 2 0 0 1-2 2H79.402a2 2 0 0 1-2-2V37.58a2 2 0 0 1 2-2h21.195a2 2 0 0 1 2 2v1.543zM143.353 134.92a2.5 2.5 0 0 1-2.487-2.5V71.66a2.5 2.5 0 0 1 2.488-2.5 2.5 2.5 0 0 1 2.487 2.5v60.76a2.5 2.5 0 0 1-2.487 2.5zM36.768 134.92a2.5 2.5 0 0 1-2.487-2.5V71.66a2.5 2.5 0 0 1 2.488-2.5 2.5 2.5 0 0 1 2.488 2.5v60.76a2.5 2.5 0 0 1-2.488 2.5zM136.744 147.86v-7.393H43.256v7.392h-11.05v4.976h14.05v-4.977H62.36c-3.543 3.598-7.224 7-10.832 10.487-1.02.986-2.073 1.937-3.057 2.972-.606.642-1.334 1.6-1.058 2.728.13.543.436.988.747 1.37.555.68.96.578 1.692.578h80.295c.733 0 1.138.102 1.694-.578.313-.382.616-.827.747-1.37.276-1.13-.45-2.086-1.06-2.73-.982-1.034-2.035-1.984-3.056-2.97-3.607-3.49-7.288-6.89-10.83-10.49h16.103v4.978h14.05v-4.977h-11.05zM136.744 46.946H43.256v61.488h93.488V46.946zM73.14 102.613H48.27V63.07c0-1.103 1.24-2.304 2.24-3 4.504-3.127 10.364-3.992 15.588-2.323 1.557.497 3.168 1.187 4.57 2.028 1.373.824 2.473 1.88 2.473 3.296v39.543zm29.296 0H77.564V63.07c0-1.103 1.24-2.304 2.24-3 4.504-3.127 10.364-3.992 15.588-2.323 1.557.497 3.168 1.187 4.57 2.028 1.373.824 2.473 1.88 2.473 3.296v39.543zm29.294 0h-24.87V63.07c0-1.103 1.238-2.304 2.24-3 4.503-3.127 10.363-3.992 15.587-2.323 1.557.497 3.168 1.187 4.57 2.028 1.373.824 2.473 1.88 2.473 3.296v39.543zM136.744 112.435H43.256v24.033h93.488v-24.033zm-46.97 19.88c-4.467-.105-7.805-3.674-7.744-8.224.07-4.27 3.69-7.71 8.072-7.643 4.388.067 7.943 3.68 7.867 8.016-.086 4.44-3.743 7.937-8.195 7.853z"/></svg><svg width="180" height="180" viewBox="0 0 180 180" id="icon-transit-type-ferry" x="360"><path fill-rule="evenodd" clip-rule="evenodd" d="M90.72 156.76c-2.81 5.415-7.57 8.033-13.646 8.12-6.367.1-11.348-2.518-14.336-8.19-1.46 3.504-4.277 5.65-7.785 7.067-4.225 1.672-8.533 1.643-12.732.03-4.91-1.88-6.923-5.677-7.274-10.4-.05-.652 0-1.33 0-2.173 2.8 3.773 6.973 4.596 11.24 5.067 3.285.37 6.594.132 9.77-.783 2.773-.815 5.348-1.904 6.836-4.597 1.475 2.65 3.984 3.812 6.717 4.545 5.052 1.37 10.14 1.323 15.165-.192 2.883-.876 4.385-1.97 6.05-4.273 2.01 3.29 5.44 4.355 9.04 4.992 4.596.815 9.168.594 13.592-.984 2.174-.775 4.08-1.883 5.238-4.038 2.676 4.02 7.033 4.895 11.49 5.332 4.48.422 8.934.012 12.965-2.104 1.27-.67 2.307-1.72 3.318-2.504.74 5.454-2.273 10.433-7.307 12.18-5.503 1.895-10.747 1.41-15.634-1.678-2.217-1.425-3.105-2.47-4.746-5.398-2.848 5.445-7.73 8.09-13.95 8.112-6.238.012-11.148-2.598-14.01-8.13zM147.232 99.956l-10.366-5.14-4.88-24.052a5.507 5.507 0 0 0-3.345-4.012l-8.42-3.375-2.11-17.59a5.5 5.5 0 0 0-4.302-4.785l-7.92-1.72V27.77a5.5 5.5 0 0 0-5.5-5.5H79.4a5.5 5.5 0 0 0-5.5 5.5v11.51L65.98 41a5.503 5.503 0 0 0-4.3 4.785l-2.113 17.59-8.42 3.375a5.5 5.5 0 0 0-3.345 4.012l-4.888 24.093L32.74 99.97a5.5 5.5 0 0 0-2.758 6.62L40.69 135.4a5.5 5.5 0 0 0 .836 1.605c2.725 3.613 5.974 7.164 13.015 7.456.166.007.34.01.524.01 1.098 0 3.197-.147 5.558-1.075 3.426 2.967 8.404 4.633 14.256 4.633 4.634 0 10.594-1.183 15.123-4.245 4.53 3.062 10.49 4.245 15.123 4.245 5.852 0 10.83-1.667 14.256-4.634a15.47 15.47 0 0 0 5.556 1.077c.185 0 .36-.003.532-.01 7.036-.29 10.284-3.843 13.007-7.457a5.503 5.503 0 0 0 .836-1.604l10.708-28.81a5.5 5.5 0 0 0-2.786-6.634zM92.072 72.61a5.494 5.494 0 0 0-4.913.013L55.413 88.576l2.58-12.717 8.733-3.5a5.502 5.502 0 0 0 3.423-4.517l2.04-16.934 8.378-1.82a5.475 5.475 0 0 0 1.857-.793h14.938a5.492 5.492 0 0 0 1.857.793l8.376 1.82 2.04 16.932a5.505 5.505 0 0 0 3.423 4.517l8.735 3.5 2.59 12.77-32.313-16.02z"/></svg><svg width="180" height="180" viewBox="0 0 180 180" id="icon-transit-type-funicular" x="540"><path d="M148.61 30.292c-.952-.57-2.376-.8-3.41-.526-8.724 2.298-14.11 3.773-19.816 5.335a2518.11 2518.11 0 0 1-15.84 4.298c-25.034 6.7-50.066 13.398-75.098 20.1l-1.374.364c-1.66.44-3.378.894-5.057 1.404-1.658.504-2.542 1.854-2.305 3.52.238 1.68 1.454 2.677 3.337 2.74l.117.004.436-.083c.33-.06.728-.132 1.116-.236 10.823-2.887 21.646-5.778 32.466-8.676 14.212-3.806 25.77-6.938 37.326-10.07s23.112-6.266 37.322-10.07c.934-.25 1.87-.492 2.805-.733 2.156-.556 4.386-1.13 6.56-1.805 1-.312 2.033-1.296 2.46-2.34.4-.978-.157-2.695-1.044-3.223z"/><path fill-rule="evenodd" clip-rule="evenodd" d="M96.38 53.017c.467 2.48 1.1 5.866 1.53 8.188 1.01 5.5 2.03 10.997 2.998 16.505.157.894.51 1.248 1.415 1.19.93-.065 1.87-.048 2.804-.013 1.49.058 2.132.73 2.195 2.232.155 3.67.155 3.658-3.533 3.653-7.44-.008-14.876-.022-22.312.02-1.13.006-1.688-.237-1.512-1.48.094-.668.01-1.358.02-2.04.03-1.665.626-2.296 2.308-2.38.89-.043 1.787-.066 2.676-.007.86.06 1.207-.32 1.35-1.124 1.1-6.128 2.338-12.236 3.274-18.392.51-3.34 4.025-4.63 6.785-6.353zM84.147 36.342c-.047 3.142-2.37 5.372-5.563 5.342-3.005-.026-5.583-2.623-5.503-5.538.092-3.23 2.62-5.555 5.987-5.497 2.896.047 5.128 2.55 5.08 5.692zM117.68 27.324c.01 2.896-2.526 5.436-5.424 5.427-3.18-.008-5.648-2.404-5.663-5.498-.017-3.057 2.528-5.6 5.587-5.586 3.108.016 5.488 2.462 5.5 5.658zM61.764 46.103c-3.023-.078-5.52-2.646-5.43-5.587.085-2.924 2.77-5.533 5.655-5.5 2.99.033 5.61 2.75 5.518 5.72-.1 3.187-2.52 5.45-5.744 5.367zM100.9 31.802c.024 2.922-2.484 5.48-5.374 5.48-2.984 0-5.654-2.534-5.69-5.405-.04-3.125 2.462-5.707 5.614-5.796 2.953-.082 5.427 2.515 5.45 5.722zM146.07 131.44c-1.99-11.46-4.005-22.912-6.123-34.348-1.12-6.054-4.935-9.09-11.03-9.09-23.456.004-46.914.004-70.37.016-6.498.002-10.3 3.195-11.446 9.6-1.94 10.847-3.84 21.7-5.82 32.54-.377 2.067-.278 4.023.32 6.026 1.15 3.86 2.162 7.764 3.303 11.626 1.082 3.666 2.03 7.394 3.443 10.93 1.912 4.792 5.392 7.312 10.896 7.215 11.493-.205 22.993-.062 34.492-.062v.016c3.985 0 7.97 0 11.955-.002 7.82-.005 15.637-.044 23.455-.004 3.46.018 6.182-1.354 8.026-4.208 1.096-1.695 2.12-3.535 2.7-5.453 2.13-7.078 4.095-14.208 6.038-21.343a8.25 8.25 0 0 0 .16-3.46zm-74.393-2.464c-.003 2.948-1.038 4.136-3.602 4.14a4486.2 4486.2 0 0 1-13.227-.004c-2.542-.004-3.552-1.348-3.073-4.175 1.605-9.54 3.23-19.076 4.867-28.61.438-2.556 1.198-3.242 3.463-3.25 2.798-.01 5.597-.01 8.395 0 2.282.01 3.174 1.01 3.177 3.57.008 4.722.004 9.443.004 14.165 0 4.72.006 9.44-.003 14.164zm18.155 23.977c0 2.65-.96 3.928-2.968 3.968-1.48.03-2.962.025-4.44.003-1.998-.03-2.906-1.212-2.91-3.84-.012-8.77-.004-17.54-.004-26.312-.002-8.722-.006-17.444 0-26.166.002-2.554.725-3.508 2.662-3.526 1.702-.017 3.405-.024 5.107.003 1.775.03 2.552 1.064 2.552 3.395.005 17.49.006 34.984 0 52.478zm17.536-.232c0 2.982-.854 4.176-2.98 4.205-1.185.016-2.372-.013-3.558 0-2.082.02-2.92-1.13-2.92-4.07-.006-8.722-.004-17.442-.004-26.16 0-8.722-.002-17.443.003-26.164 0-2.452.674-3.43 2.383-3.45 1.56-.02 3.12-.026 4.68 0 1.686.03 2.395 1.063 2.396 3.465a181489 181489 0 0 1-.002 52.176zm25.08-19.618c-4.905.042-9.81.032-14.717.005-2.05-.013-3.124-1.307-3.138-3.764-.024-4.864-.007-9.73-.007-14.597 0-4.72-.007-9.442.003-14.162.004-2.58.848-3.498 3.214-3.507 3.03-.014 6.065-.015 9.098.002 1.97.01 2.902.74 3.29 2.834 1.453 7.827 2.845 15.665 4.263 23.498.342 1.888.705 3.77 1.04 5.66.445 2.543-.623 4.01-3.044 4.03z"/></svg><svg width="180" height="180" viewBox="0 0 180 180" id="icon-transit-type-gondola" x="720"><path d="M148.61 30.292c-.952-.57-2.376-.8-3.41-.526-8.724 2.298-14.11 3.773-19.816 5.335a2518.11 2518.11 0 0 1-15.84 4.298c-25.034 6.7-50.066 13.398-75.098 20.1l-1.374.364c-1.66.44-3.378.894-5.057 1.404-1.658.504-2.542 1.854-2.305 3.52.238 1.68 1.454 2.677 3.337 2.74l.117.004.436-.083c.33-.06.728-.132 1.116-.236 10.823-2.887 21.646-5.778 32.466-8.676 14.212-3.806 25.77-6.938 37.326-10.07s23.112-6.266 37.322-10.07c.934-.25 1.87-.492 2.805-.733 2.156-.556 4.386-1.13 6.56-1.805 1-.312 2.033-1.296 2.46-2.34.4-.978-.157-2.695-1.044-3.223z"/><path fill-rule="evenodd" clip-rule="evenodd" d="M96.38 53.017c.467 2.48 1.1 5.866 1.53 8.188 1.01 5.5 2.03 10.997 2.998 16.505.157.894.51 1.248 1.415 1.19.93-.065 1.87-.048 2.804-.013 1.49.058 2.132.73 2.195 2.232.155 3.67.155 3.658-3.533 3.653-7.44-.008-14.876-.022-22.312.02-1.13.006-1.688-.237-1.512-1.48.094-.668.01-1.358.02-2.04.03-1.665.626-2.296 2.308-2.38.89-.043 1.787-.066 2.676-.007.86.06 1.207-.32 1.35-1.124 1.1-6.128 2.338-12.236 3.274-18.392.51-3.34 4.025-4.63 6.785-6.353zM84.147 36.342c-.047 3.142-2.37 5.372-5.563 5.342-3.005-.026-5.583-2.623-5.503-5.538.092-3.23 2.62-5.555 5.987-5.497 2.896.047 5.128 2.55 5.08 5.692zM117.68 27.324c.01 2.896-2.526 5.436-5.424 5.427-3.18-.008-5.648-2.404-5.663-5.498-.017-3.057 2.528-5.6 5.587-5.586 3.108.016 5.488 2.462 5.5 5.658zM61.764 46.103c-3.023-.078-5.52-2.646-5.43-5.587.085-2.924 2.77-5.533 5.655-5.5 2.99.033 5.61 2.75 5.518 5.72-.1 3.187-2.52 5.45-5.744 5.367zM100.9 31.802c.024 2.922-2.484 5.48-5.374 5.48-2.984 0-5.654-2.534-5.69-5.405-.04-3.125 2.462-5.707 5.614-5.796 2.953-.082 5.427 2.515 5.45 5.722zM146.07 131.44c-1.99-11.46-4.005-22.912-6.123-34.348-1.12-6.054-4.935-9.09-11.03-9.09-23.456.004-46.914.004-70.37.016-6.498.002-10.3 3.195-11.446 9.6-1.94 10.847-3.84 21.7-5.82 32.54-.377 2.067-.278 4.023.32 6.026 1.15 3.86 2.162 7.764 3.303 11.626 1.082 3.666 2.03 7.394 3.443 10.93 1.912 4.792 5.392 7.312 10.896 7.215 11.493-.205 22.993-.062 34.492-.062v.016c3.985 0 7.97 0 11.955-.002 7.82-.005 15.637-.044 23.455-.004 3.46.018 6.182-1.354 8.026-4.208 1.096-1.695 2.12-3.535 2.7-5.453 2.13-7.078 4.095-14.208 6.038-21.343a8.25 8.25 0 0 0 .16-3.46zm-74.393-2.464c-.003 2.948-1.038 4.136-3.602 4.14a4486.2 4486.2 0 0 1-13.227-.004c-2.542-.004-3.552-1.348-3.073-4.175 1.605-9.54 3.23-19.076 4.867-28.61.438-2.556 1.198-3.242 3.463-3.25 2.798-.01 5.597-.01 8.395 0 2.282.01 3.174 1.01 3.177 3.57.008 4.722.004 9.443.004 14.165 0 4.72.006 9.44-.003 14.164zm18.155 23.977c0 2.65-.96 3.928-2.968 3.968-1.48.03-2.962.025-4.44.003-1.998-.03-2.906-1.212-2.91-3.84-.012-8.77-.004-17.54-.004-26.312-.002-8.722-.006-17.444 0-26.166.002-2.554.725-3.508 2.662-3.526 1.702-.017 3.405-.024 5.107.003 1.775.03 2.552 1.064 2.552 3.395.005 17.49.006 34.984 0 52.478zm17.536-.232c0 2.982-.854 4.176-2.98 4.205-1.185.016-2.372-.013-3.558 0-2.082.02-2.92-1.13-2.92-4.07-.006-8.722-.004-17.442-.004-26.16 0-8.722-.002-17.443.003-26.164 0-2.452.674-3.43 2.383-3.45 1.56-.02 3.12-.026 4.68 0 1.686.03 2.395 1.063 2.396 3.465a181489 181489 0 0 1-.002 52.176zm25.08-19.618c-4.905.042-9.81.032-14.717.005-2.05-.013-3.124-1.307-3.138-3.764-.024-4.864-.007-9.73-.007-14.597 0-4.72-.007-9.442.003-14.162.004-2.58.848-3.498 3.214-3.507 3.03-.014 6.065-.015 9.098.002 1.97.01 2.902.74 3.29 2.834 1.453 7.827 2.845 15.665 4.263 23.498.342 1.888.705 3.77 1.04 5.66.445 2.543-.623 4.01-3.044 4.03z"/></svg><svg width="180" height="180" viewBox="0 0 180 180" id="icon-transit-type-metro" x="900"><path d="M145.163 161.32c-1.307-1.036-2.705-1.986-4.062-2.973-5.016-3.65-10.143-7.2-15.05-10.99 5.99-.655 10.693-5.766 10.693-11.924v-75.75c0-6.6-5.4-12-12-12H55.257c-6.6 0-12 5.4-12 12v75.75c0 6.158 4.703 11.27 10.694 11.925-4.907 3.788-10.034 7.338-15.05 10.99-1.357.985-2.756 1.936-4.063 2.97-.806.644-1.772 1.6-1.405 2.73.173.543.578.988.99 1.37.74.68 1.277.578 2.25.578h106.654c.974 0 1.51.102 2.25-.578.413-.382.818-.827.99-1.37.37-1.13-.597-2.086-1.403-2.73zm-84.136-25.78c-4.88-.117-8.53-4.018-8.464-8.988.077-4.668 4.033-8.427 8.822-8.354 4.794.076 8.68 4.023 8.597 8.76-.095 4.85-4.09 8.673-8.955 8.58zm24.875-27.927a2 2 0 0 1-2 2H52.696a2 2 0 0 1-2-2V74.07a2 2 0 0 1 2-2h31.206a2 2 0 0 1 2 2v33.543zm8.246 0V74.07a2 2 0 0 1 2-2h31.195a2 2 0 0 1 2 2v33.543a2 2 0 0 1-2 2H96.148a2 2 0 0 1-2-2zM76.608 60.4v-1.543a2 2 0 0 1 2-2h23.196a2 2 0 0 1 2 2V60.4a2 2 0 0 1-2 2H78.61a2 2 0 0 1-2-2zm42.147 75.125c-4.775.01-8.6-3.783-8.61-8.54-.016-5.022 3.78-8.818 8.756-8.792 4.765 0 8.563 3.843 8.58 8.59.003 4.963-3.775 8.73-8.725 8.742z"/><path d="M160.062 165.996h-8v-88.01c0-27.02-21.98-49-49-49H76.938c-27.02 0-49 21.98-49 49v88.01h-8v-88.01c0-31.43 25.57-57 57-57h26.125c31.43 0 57 25.57 57 57v88.01z"/></svg><svg width="180" height="180" viewBox="0 0 180 180" id="icon-transit-type-rail" x="1080"><path d="M147.162 161.32c-1.307-1.036-2.705-1.986-4.06-2.973-5.02-3.65-10.146-7.2-15.052-10.99 5.99-.655 10.693-5.766 10.693-11.924v-90.75c0-6.6-5.4-12-12-12h-15.98l-4.812-6.9c-1.573-2.254-5.11-4.1-7.86-4.1H81.908c-2.75 0-6.287 1.846-7.86 4.1l-4.813 6.9h-15.98c-6.6 0-12 5.4-12 12v90.75c0 6.158 4.704 11.27 10.696 11.925-4.907 3.788-10.034 7.338-15.052 10.99-1.355.985-2.754 1.936-4.06 2.97-.808.644-1.774 1.6-1.407 2.73.175.543.58.988.993 1.37.738.68 1.275.578 2.25.578h110.652c.975 0 1.512.102 2.25-.578.414-.382.818-.827.992-1.37.37-1.13-.598-2.086-1.405-2.73zm-86.398-25.78c-4.88-.117-8.53-4.018-8.463-8.988.077-4.668 4.034-8.427 8.823-8.354 4.793.076 8.678 4.023 8.596 8.76-.097 4.85-4.09 8.673-8.956 8.58zm24.875-29.927a2 2 0 0 1-2 2H50.433a2 2 0 0 1-2-2V65.07a2 2 0 0 1 2-2H83.64a2 2 0 0 1 2 2v40.543zm-4.57-62.988c.035-4.764 3.982-8.7 8.715-8.714 4.814-.005 8.68 3.94 8.67 8.847-.01 4.716-3.865 8.557-8.604 8.55-4.88 0-8.827-3.9-8.78-8.682zm12.815 62.988V65.07a2 2 0 0 1 2-2h33.195a2 2 0 0 1 2 2v40.543a2 2 0 0 1-2 2H95.885a2 2 0 0 1-2-2zm24.607 29.912c-4.775.01-8.6-3.783-8.61-8.54-.017-5.022 3.778-8.818 8.755-8.792 4.764 0 8.562 3.843 8.578 8.59.006 4.963-3.774 8.73-8.723 8.742z"/></svg><svg width="180" height="180" viewBox="0 0 180 180" id="icon-transit-type-tram" x="1260"><path d="M147.162 161.32c-1.307-1.036-2.705-1.986-4.06-2.973-5.02-3.65-10.146-7.2-15.052-10.99 5.99-.655 10.693-5.766 10.693-11.924v-74.75c0-6.6-5.4-12-12-12h-25.155l8.622-17.934c.137-.237.195-.496.195-.75h4.7c.282.025.866.367 1.013.577l3.77 6.693a3.998 3.998 0 0 0 5.45 1.522 4 4 0 0 0 1.52-5.448l-3.77-6.693c-1.518-2.694-4.863-4.65-7.957-4.65H64.866c-3.092 0-6.44 1.956-7.957 4.65l-3.77 6.694a4 4 0 0 0 6.97 3.926l3.756-6.672c.162-.23.746-.573 1-.6h4.73c0 .256.058.514.194.75l8.622 17.934H53.256c-6.6 0-12 5.4-12 12v74.75c0 6.158 4.703 11.27 10.695 11.925-4.907 3.788-10.034 7.338-15.052 10.99-1.355.985-2.754 1.936-4.06 2.97-.808.644-1.774 1.6-1.407 2.73.175.543.58.988.993 1.37.738.68 1.275.578 2.25.578h110.652c.975 0 1.512.102 2.25-.578.414-.382.818-.827.992-1.37.37-1.128-.598-2.085-1.405-2.728zm-58.8-112.636C88.36 48.43 78.545 30 78.545 30h22.908s-9.817 18.43-9.817 18.684H88.36zM60.763 135.54c-4.88-.117-8.53-4.018-8.463-8.988.077-4.668 4.034-8.427 8.823-8.354 4.793.076 8.678 4.023 8.596 8.76-.097 4.85-4.09 8.673-8.956 8.58zm57.728-.015c-4.775.01-8.6-3.783-8.61-8.54-.017-5.022 3.778-8.818 8.755-8.792 4.764 0 8.562 3.843 8.578 8.59.006 4.963-3.774 8.73-8.723 8.742zm7.588-27.912H53.434a2 2 0 0 1-2-2V66.07a2 2 0 0 1 2-2h72.646a2 2 0 0 1 2 2v39.543a2 2 0 0 1-2 2z"/></svg></svg>