<?xml version="1.0" encoding="utf-8"?>
<!-- Generator: Adobe Illustrator 16.0.4, SVG Export Plug-In . SVG Version: 6.00 Build 0)  -->
<!DOCTYPE svg PUBLIC "-//W3C//DTD SVG 1.1//EN" "http://www.w3.org/Graphics/SVG/1.1/DTD/svg11.dtd">
<svg version="1.1" id="Layer_1" xmlns="http://www.w3.org/2000/svg" xmlns:xlink="http://www.w3.org/1999/xlink" x="0px" y="0px"
	 width="576px" height="16px" viewBox="0 0 576 16" enable-background="new 0 0 576 16" xml:space="preserve">
<g>
	<g>
		<path fill="#1B272D" d="M14.334,8.627L9.267,1.828C9.246,1.799,9.22,1.775,9.193,1.754C9.121,1.66,9.007,1.6,8.88,1.6
			S8.641,1.66,8.568,1.754C8.541,1.775,8.514,1.799,8.493,1.828L3.426,8.627C3.294,8.805,3.331,9.055,3.507,9.188
			c0.072,0.053,0.156,0.08,0.239,0.08c0.122,0,0.242-0.057,0.321-0.162L8.48,3.184v8.016c0,0.221,0.18,0.4,0.4,0.4s0.4-0.18,0.4-0.4
			V3.184l4.412,5.922c0.078,0.105,0.199,0.162,0.321,0.162c0.083,0,0.167-0.027,0.238-0.08C14.429,9.055,14.466,8.805,14.334,8.627z
			"/>
		<path fill="#1B272D" d="M8.88,12.4c-0.221,0-0.4,0.178-0.4,0.4V14c0,0.221,0.18,0.4,0.4,0.4s0.4-0.18,0.4-0.4v-1.199
			C9.281,12.578,9.101,12.4,8.88,12.4z"/>
	</g>
	<path fill="#1B272D" d="M266.984,6.782h-10.061l5.967-4.445c0.178-0.132,0.215-0.383,0.082-0.56
		c-0.131-0.177-0.383-0.214-0.559-0.082l-6.801,5.066c-0.055,0.04-0.094,0.093-0.121,0.149c-0.066,0.072-0.107,0.167-0.107,0.271
		c0,0.168,0.104,0.311,0.25,0.371l6.779,5.05c0.07,0.054,0.154,0.079,0.238,0.079c0.121,0,0.242-0.056,0.32-0.16
		c0.133-0.178,0.096-0.428-0.082-0.561l-5.877-4.379h9.572v6.4c0,0.221,0.178,0.399,0.398,0.399s0.4-0.179,0.4-0.399V7.183
		C267.385,6.962,267.205,6.782,266.984,6.782z"/>
	<g>
		<g>
			<path fill="#A0A0A0" d="M148,9.642c-0.221,0-0.5-0.18-0.5-0.4v-7.6c0-0.222,0.279-0.4,0.5-0.4s0.5,0.179,0.5,0.4v7.6
				C148.5,9.462,148.221,9.642,148,9.642z"/>
		</g>
		<path fill="#1B272D" d="M159.257,1.996c-0.074-0.109-0.193-0.168-0.316-0.174c-0.034-0.008-0.069-0.016-0.106-0.016l-8.48-0.027
			h-0.001c-0.221,0-0.399,0.172-0.4,0.393s0.178,0.393,0.398,0.395l7.335,0.012l-10.343,7.004c-0.003,0.002-0.005,0.004-0.007,0.006
			c-0.184,0.035-0.323,0.197-0.323,0.391v4.201c0,0.221,0.179,0.4,0.4,0.4c0.221,0,0.399-0.18,0.399-0.4v-3.951l10.422-7.057
			l-2.158,7.145c-0.064,0.211,0.056,0.436,0.268,0.498c0.038,0.012,0.077,0.018,0.115,0.018c0.172,0,0.33-0.111,0.383-0.285
			l2.452-8.117c0.011-0.033,0.015-0.068,0.016-0.102C159.34,2.219,159.326,2.098,159.257,1.996z"/>
	</g>
	<g>
		<g>
			<path fill="#A0A0A0" d="M310,9.669c-0.221,0-0.5-0.179-0.5-0.399V1.669c0-0.221,0.279-0.399,0.5-0.399s0.5,0.179,0.5,0.399V9.27
				C310.5,9.49,310.221,9.669,310,9.669z"/>
		</g>
		<path fill="#1B272D" d="M321.582,1.896c-0.111-0.164-0.32-0.217-0.496-0.139l-8.408,0.021l0,0c-0.221,0-0.4,0.146-0.4,0.367
			c-0.002,0.221,0.178,0.369,0.398,0.369l7.199,0.055l-10.207,6.912c-0.061,0.039-0.104,0.094-0.135,0.154
			c-0.117,0.07-0.195,0.197-0.195,0.342v4.201c0,0.221,0.178,0.4,0.4,0.4c0.221,0,0.398-0.18,0.398-0.4v-4.051l10.422-7.057
			l-2.158,7.145c-0.064,0.211,0.057,0.434,0.268,0.498c0.039,0.012,0.078,0.018,0.115,0.018c0.172,0,0.33-0.111,0.383-0.285
			l2.453-8.117c0.01-0.033,0.014-0.068,0.016-0.104C321.664,2.119,321.65,1.998,321.582,1.896z"/>
	</g>
	<g>
		<g>
			<path fill="#A0A0A0" d="M346,9.779c-0.221,0-0.5-0.18-0.5-0.4v-7.6c0-0.221,0.279-0.4,0.5-0.4s0.5,0.18,0.5,0.4v7.6
				C346.5,9.6,346.221,9.779,346,9.779z"/>
		</g>
		<path fill="#1B272D" d="M357.654,2.039c-0.074-0.111-0.193-0.17-0.316-0.176c-0.035-0.008-0.07-0.016-0.107-0.016l-8.48-0.027l0,0
			c-0.221,0-0.4,0.172-0.4,0.393c-0.002,0.221,0.178,0.393,0.398,0.395l7.334,0.012L345.74,9.623
			c-0.004,0.002-0.006,0.004-0.008,0.006c-0.184,0.035-0.322,0.197-0.322,0.393v4.199c0,0.221,0.178,0.4,0.4,0.4
			c0.221,0,0.398-0.18,0.398-0.4V10.27l10.422-7.057l-2.158,7.145c-0.064,0.211,0.057,0.436,0.268,0.498
			c0.039,0.012,0.078,0.018,0.115,0.018c0.172,0,0.33-0.111,0.383-0.283l2.453-8.119c0.01-0.033,0.014-0.068,0.016-0.102
			C357.736,2.26,357.723,2.139,357.654,2.039z"/>
	</g>
	<path fill="#1B272D" d="M410.695,10.318l-1.631-8.322c-0.006-0.035-0.02-0.066-0.035-0.098c-0.023-0.109-0.092-0.207-0.197-0.266
		c-0.119-0.064-0.258-0.062-0.369-0.006c-0.033,0.008-0.066,0.018-0.096,0.035l-7.508,3.943c-0.195,0.102-0.271,0.344-0.168,0.539
		c0.07,0.137,0.209,0.215,0.354,0.215c0.062,0,0.127-0.016,0.186-0.047l6.443-3.383l-3.693,6.803
		c-0.004,0.008-0.008,0.018-0.012,0.027c-0.059,0.068-0.094,0.158-0.094,0.256v4c0,0.221,0.178,0.4,0.398,0.4s0.4-0.18,0.4-0.4
		v-3.889c0.004-0.004,0.008-0.008,0.01-0.014l3.789-6.979l1.438,7.338c0.039,0.189,0.205,0.322,0.393,0.322
		c0.025,0,0.051-0.002,0.078-0.008C410.598,10.746,410.738,10.535,410.695,10.318z"/>
	<path fill="#1B272D" d="M428.525,5.605l-7.508-3.943c-0.031-0.018-0.064-0.027-0.096-0.035c-0.113-0.057-0.252-0.059-0.371,0.006
		c-0.105,0.057-0.174,0.156-0.197,0.266c-0.016,0.031-0.027,0.062-0.035,0.098l-1.631,8.322c-0.043,0.217,0.1,0.428,0.316,0.469
		c0.025,0.006,0.051,0.008,0.076,0.008c0.188,0,0.355-0.133,0.393-0.322l1.438-7.338l3.789,6.979c0.004,0.006,0.008,0.01,0.01,0.014
		v3.889c0,0.221,0.18,0.4,0.4,0.4s0.4-0.18,0.4-0.4v-4c0-0.098-0.037-0.188-0.096-0.256c-0.004-0.01-0.006-0.02-0.012-0.027
		l-3.693-6.803l6.443,3.383c0.061,0.031,0.123,0.047,0.186,0.047c0.145,0,0.283-0.078,0.355-0.215
		C428.795,5.949,428.721,5.707,428.525,5.605z"/>
	<g>
		<g>
			<path fill="#A0A0A0" d="M339,9.779c-0.221,0-0.5-0.18-0.5-0.4v-7.6c0-0.221,0.279-0.4,0.5-0.4s0.5,0.18,0.5,0.4v7.6
				C339.5,9.6,339.221,9.779,339,9.779z"/>
		</g>
		<g>
			<path fill="#1B272D" d="M330.242,10.432c-0.172,0-0.332-0.111-0.383-0.283l-2.453-8.119c-0.064-0.211,0.057-0.434,0.268-0.498
				s0.434,0.057,0.498,0.268l2.453,8.117c0.062,0.211-0.057,0.436-0.268,0.498C330.318,10.426,330.279,10.432,330.242,10.432z"/>
		</g>
		<g>
			<path fill="#1B272D" d="M327.869,2.18c-0.221,0-0.4-0.164-0.4-0.385c-0.002-0.221,0.178-0.395,0.398-0.395l8.48-0.021l0,0
				c0.221,0,0.4,0.178,0.4,0.398s-0.178,0.387-0.398,0.389L327.869,2.18L327.869,2.18z"/>
		</g>
		<path fill="#1B272D" d="M339.357,9.623L328,1.932c-0.184-0.125-0.432-0.076-0.557,0.107c-0.123,0.182-0.076,0.432,0.107,0.555
			l11.125,7.533v4.094c0,0.221,0.178,0.4,0.398,0.4s0.4-0.18,0.4-0.4V10.16C339.584,9.979,339.535,9.742,339.357,9.623z"/>
	</g>
	<g>
		<g>
			<path fill="#A0A0A0" d="M375,9.641c-0.221,0-0.5-0.179-0.5-0.399V1.641c0-0.221,0.279-0.399,0.5-0.399s0.5,0.179,0.5,0.399v7.601
				C375.5,9.462,375.221,9.641,375,9.641z"/>
		</g>
		<path fill="#1B272D" d="M375.504,9.582L365.16,2.578l7.336-0.012c0.221-0.002,0.398-0.168,0.398-0.389s-0.18-0.398-0.4-0.398l0,0
			l-8.48,0.021c-0.049,0-0.094,0.01-0.137,0.025c-0.113,0.012-0.219,0.07-0.287,0.172c-0.068,0.1-0.082,0.221-0.053,0.328
			c0.002,0.035,0.006,0.07,0.016,0.104l2.453,8.119c0.051,0.172,0.211,0.283,0.383,0.283c0.037,0,0.076-0.006,0.115-0.018
			c0.211-0.062,0.33-0.287,0.268-0.498l-2.158-7.145l10.219,6.92c-0.006,0.029-0.01,0.059-0.01,0.088v4c0,0.221,0.178,0.4,0.398,0.4
			s0.4-0.18,0.4-0.4v-4c0-0.018-0.002-0.035-0.004-0.051C375.732,9.947,375.686,9.703,375.504,9.582z"/>
	</g>
	<path fill="#1B272D" d="M249.359,2.096c-0.002-0.005-0.006-0.007-0.01-0.011c-0.049-0.164-0.199-0.285-0.381-0.285
		c-0.201,0-0.365,0.15-0.393,0.344L238.361,9.06l2.158-7.144c0.062-0.212-0.057-0.435-0.268-0.499
		c-0.211-0.063-0.436,0.057-0.498,0.268l-2.453,8.117c-0.01,0.035-0.014,0.069-0.016,0.104c-0.029,0.109-0.016,0.229,0.053,0.33
		c0.078,0.114,0.203,0.176,0.332,0.176c0.029,0,0.059-0.006,0.086-0.013c0.002,0,0.004,0.001,0.006,0.001l8.48,0.001l0,0
		c0.221,0,0.4-0.158,0.4-0.378c0-0.222-0.178-0.381-0.398-0.382l-7.264-0.034l9.59-6.493V14.2c0,0.221,0.178,0.4,0.398,0.4
		s0.4-0.18,0.4-0.4V2.526C249.447,2.397,249.449,2.229,249.359,2.096z"/>
	<g>
		<path fill="#1B272D" d="M111.725,9.188c0.071,0.053,0.155,0.078,0.238,0.078c0.122,0,0.243-0.055,0.321-0.16l4.412-5.922v8.016
			c0,0.221,0.18,0.4,0.4,0.4s0.4-0.18,0.4-0.4V3.184l4.412,5.922c0.078,0.105,0.199,0.16,0.321,0.16
			c0.083,0,0.167-0.025,0.238-0.078c0.177-0.133,0.214-0.383,0.082-0.561l-5.066-6.799c-0.022-0.029-0.048-0.053-0.075-0.074
			c-0.073-0.094-0.186-0.154-0.312-0.154s-0.239,0.061-0.312,0.154c-0.027,0.021-0.054,0.045-0.075,0.074l-5.066,6.799
			C111.511,8.805,111.547,9.055,111.725,9.188z"/>
		<path fill="#1B272D" d="M117.097,12.4c-0.221,0-0.4,0.178-0.4,0.398V14c0,0.221,0.18,0.4,0.4,0.4s0.4-0.18,0.4-0.4v-1.201
			C117.497,12.578,117.317,12.4,117.097,12.4z"/>
	</g>
	<path fill="#1B272D" d="M165.605,14.367c0.221,0,0.399-0.18,0.399-0.4v-6.4h9.616l-5.922,4.412
		c-0.178,0.133-0.214,0.383-0.082,0.561c0.078,0.105,0.199,0.16,0.321,0.16c0.083,0,0.167-0.025,0.238-0.078l6.8-5.066
		c0.029-0.021,0.053-0.047,0.074-0.074c0.094-0.074,0.154-0.186,0.154-0.314c0-0.127-0.061-0.24-0.154-0.312
		c-0.021-0.027-0.045-0.053-0.074-0.074l-6.8-5.066c-0.178-0.133-0.428-0.096-0.56,0.082c-0.132,0.176-0.096,0.428,0.082,0.559
		l5.922,4.412h-10.016c-0.222,0-0.4,0.18-0.4,0.4v6.801C165.205,14.188,165.384,14.367,165.605,14.367z"/>
	<path fill="#1B272D" d="M200.694,14.4c0.221,0,0.399-0.18,0.399-0.4V2.4h7.2v8.971l-4.379-5.877
		c-0.133-0.178-0.383-0.215-0.561-0.082c-0.177,0.131-0.213,0.383-0.081,0.559l5.05,6.779c0.06,0.146,0.203,0.25,0.371,0.25
		c0.104,0,0.197-0.041,0.268-0.105c0.059-0.027,0.111-0.068,0.152-0.123l5.066-6.801c0.133-0.176,0.096-0.428-0.081-0.559
		c-0.178-0.133-0.428-0.096-0.56,0.082l-4.446,5.967V2c0-0.221-0.179-0.4-0.399-0.4h-8c-0.222,0-0.4,0.18-0.4,0.4v12
		C200.294,14.221,200.473,14.4,200.694,14.4z"/>
	<path fill="#1B272D" d="M231.912,1.6h-8c-0.221,0-0.398,0.18-0.398,0.4v9.506l-4.479-6.012c-0.132-0.178-0.384-0.215-0.56-0.082
		c-0.178,0.131-0.215,0.383-0.082,0.559l5.066,6.801c0.055,0.072,0.129,0.121,0.211,0.145c0.066,0.051,0.15,0.084,0.242,0.084
		c0.195,0,0.357-0.141,0.393-0.324l4.996-6.705c0.131-0.176,0.094-0.428-0.082-0.559c-0.178-0.133-0.428-0.096-0.561,0.082
		l-4.346,5.832V2.4h7.201V14c0,0.221,0.178,0.4,0.398,0.4s0.4-0.18,0.4-0.4V2C232.312,1.779,232.133,1.6,231.912,1.6z"/>
	<path fill="#1B272D" d="M183.485,14.601c0.221,0,0.399-0.18,0.399-0.4V2.97l9.799,6.635l-7.261,0.023
		c-0.221,0-0.399,0.18-0.398,0.4s0.18,0.372,0.4,0.372h0.001l8.453-0.008c0.039,0.013,0.079,0.019,0.119,0.019
		c0.128,0,0.254-0.062,0.331-0.176c0.068-0.101,0.083-0.221,0.053-0.33c-0.001-0.034-0.005-0.068-0.016-0.104l-2.452-8.117
		c-0.063-0.211-0.287-0.331-0.498-0.268c-0.212,0.064-0.332,0.287-0.268,0.499l2.158,7.144l-10.443-7.071
		c-0.021-0.015-0.044-0.026-0.066-0.036c-0.073-0.092-0.185-0.152-0.312-0.152c-0.222,0-0.4,0.18-0.4,0.4v12
		C183.085,14.421,183.264,14.601,183.485,14.601z"/>
	<path fill="#1B272D" d="M129.761,9.188c0.071,0.053,0.155,0.078,0.238,0.078c0.122,0,0.243-0.055,0.321-0.16l4.412-5.922V14
		c0,0.221,0.18,0.4,0.4,0.4s0.4-0.18,0.4-0.4V3.184l4.412,5.922c0.078,0.105,0.199,0.16,0.321,0.16c0.083,0,0.167-0.025,0.238-0.078
		c0.177-0.133,0.214-0.383,0.082-0.561l-5.066-6.799c-0.022-0.029-0.048-0.055-0.075-0.074C135.372,1.66,135.26,1.6,135.133,1.6
		s-0.239,0.061-0.312,0.152c-0.027,0.021-0.054,0.047-0.075,0.076l-5.066,6.799C129.547,8.805,129.583,9.055,129.761,9.188z"/>
	<path fill="#1B272D" d="M302.912,8.627l-5.066-6.799c-0.023-0.029-0.049-0.055-0.076-0.074c-0.072-0.094-0.186-0.154-0.312-0.154
		s-0.238,0.061-0.312,0.152c-0.027,0.021-0.053,0.047-0.074,0.076l-5.066,6.799c-0.133,0.178-0.096,0.428,0.082,0.561
		c0.07,0.053,0.154,0.078,0.238,0.078c0.121,0,0.242-0.055,0.32-0.16l4.412-5.922V14c0,0.221,0.18,0.4,0.4,0.4s0.4-0.18,0.4-0.4
		V3.184l4.412,5.922c0.078,0.105,0.199,0.16,0.322,0.16c0.082,0,0.166-0.025,0.238-0.078C303.006,9.055,303.043,8.805,302.912,8.627
		z"/>
	<path fill="#1B272D" d="M393.092,8.627l-5.066-6.799c-0.021-0.029-0.047-0.053-0.074-0.074c-0.074-0.094-0.186-0.154-0.312-0.154
		s-0.24,0.061-0.312,0.154c-0.027,0.021-0.055,0.045-0.076,0.074l-5.066,6.799c-0.131,0.178-0.096,0.428,0.082,0.561
		c0.072,0.053,0.156,0.08,0.238,0.08c0.123,0,0.244-0.057,0.322-0.162l4.412-5.922V14c0,0.221,0.18,0.4,0.4,0.4s0.4-0.18,0.4-0.4
		V3.184l4.412,5.922c0.078,0.105,0.199,0.162,0.32,0.162c0.084,0,0.168-0.027,0.238-0.08C393.188,9.055,393.225,8.805,393.092,8.627
		z"/>
	<g>
		<path fill="#1B272D" d="M48.152,7.6h-8.017l5.922-4.412c0.178-0.133,0.214-0.383,0.082-0.561
			c-0.132-0.177-0.383-0.213-0.561-0.082l-6.8,5.067c-0.029,0.021-0.053,0.048-0.074,0.075C38.612,7.761,38.552,7.873,38.552,8
			s0.061,0.238,0.152,0.312c0.021,0.027,0.046,0.054,0.075,0.075l6.8,5.066c0.072,0.054,0.156,0.08,0.239,0.08
			c0.122,0,0.242-0.057,0.321-0.161c0.132-0.177,0.096-0.428-0.082-0.56l-5.922-4.413h8.017c0.221,0,0.399-0.179,0.399-0.399
			S48.373,7.6,48.152,7.6z"/>
		<path fill="#1B272D" d="M50.952,7.6h-1.2c-0.221,0-0.399,0.18-0.399,0.4s0.179,0.399,0.399,0.399h1.2c0.221,0,0.4-0.179,0.4-0.399
			S51.173,7.6,50.952,7.6z"/>
	</g>
	<g>
		<path fill="#1B272D" d="M33.316,8c0-0.127-0.061-0.239-0.152-0.312c-0.022-0.027-0.046-0.054-0.076-0.076l-6.8-5.066
			c-0.177-0.131-0.428-0.095-0.56,0.082c-0.132,0.178-0.096,0.428,0.082,0.561L31.732,7.6h-8.017c-0.221,0-0.399,0.18-0.399,0.4
			s0.179,0.399,0.399,0.399h8.017l-5.922,4.413c-0.178,0.132-0.214,0.383-0.082,0.56c0.078,0.104,0.199,0.161,0.321,0.161
			c0.083,0,0.167-0.025,0.238-0.08l6.8-5.066c0.029-0.021,0.054-0.047,0.075-0.074C33.256,8.238,33.316,8.127,33.316,8z"/>
		<path fill="#1B272D" d="M22.116,7.6h-1.2c-0.221,0-0.4,0.18-0.4,0.4s0.18,0.399,0.4,0.399h1.2c0.221,0,0.399-0.179,0.399-0.399
			S22.337,7.6,22.116,7.6z"/>
	</g>
	<g>
		<path fill="#1B272D" d="M74.637,13.822c0.078,0.105,0.198,0.161,0.321,0.161c0.082,0,0.166-0.025,0.238-0.08l4.572-3.406
			c0.035-0.026,0.063-0.059,0.088-0.092c0.153,0.243,0.315,0.494,0.488,0.752c1.084,1.619,2.182,2.964,2.192,2.978l0.314,0.384
			l0.309-0.389c0.011-0.014,1.089-1.373,2.15-3.007c1.454-2.239,2.188-3.913,2.181-4.978c-0.019-2.572-2.126-4.664-4.697-4.664
			h-0.033c-2.59,0-4.683,2.141-4.666,4.73c0.006,0.756,0.391,1.815,1.145,3.16l-4.043-3.014c-0.178-0.131-0.428-0.095-0.56,0.082
			c-0.132,0.178-0.096,0.428,0.081,0.561l4.203,3.131l-4.203,3.131C74.541,13.395,74.505,13.646,74.637,13.822z M82.766,2.282
			l0.028-0.001c2.134,0,3.882,1.736,3.897,3.87c0.011,1.686-2.539,5.371-3.849,7.084c-1.334-1.694-3.936-5.344-3.947-7.028
			C78.881,4.058,80.618,2.297,82.766,2.282z"/>
		<path fill="#1B272D" d="M84.14,7.216c0.707-0.708,0.707-1.859,0-2.568c-0.344-0.342-0.799-0.531-1.284-0.531
			c-0.484,0-0.94,0.189-1.283,0.531c-0.708,0.709-0.708,1.86,0,2.568c0.343,0.342,0.799,0.531,1.283,0.531
			C83.341,7.747,83.797,7.558,84.14,7.216z M82.138,5.214c0.191-0.191,0.447-0.297,0.718-0.297c0.271,0,0.526,0.105,0.718,0.297
			c0.396,0.396,0.396,1.04,0,1.436c-0.191,0.191-0.446,0.297-0.718,0.297c-0.271,0-0.526-0.105-0.718-0.297
			C81.742,6.254,81.742,5.61,82.138,5.214z"/>
	</g>
	<g>
		<path fill="#1B272D" d="M62.732,14.135l0.314,0.384l0.309-0.389c0.011-0.014,1.089-1.373,2.15-3.007
			c1.454-2.239,2.188-3.913,2.181-4.978c-0.02-2.572-2.126-4.664-4.697-4.664h-0.034c-2.589,0-4.682,2.141-4.665,4.73
			c0.008,1.064,0.765,2.729,2.25,4.945C61.624,12.776,62.722,14.121,62.732,14.135z M62.961,2.281h0.028
			c2.133,0,3.881,1.736,3.897,3.87c0.011,1.686-2.539,5.371-3.849,7.084c-1.335-1.694-3.936-5.344-3.947-7.029
			C59.076,4.058,60.812,2.281,62.961,2.281z"/>
		<path fill="#1B272D" d="M64.335,7.216c0.707-0.708,0.707-1.859-0.001-2.567c-0.343-0.343-0.798-0.532-1.283-0.532
			s-0.94,0.189-1.283,0.532c-0.708,0.708-0.708,1.859-0.001,2.567c0.344,0.342,0.799,0.531,1.284,0.531S63.991,7.558,64.335,7.216z
			 M62.333,5.214c0.191-0.191,0.446-0.297,0.718-0.297s0.526,0.105,0.718,0.297c0.396,0.396,0.396,1.04,0,1.436
			c-0.191,0.191-0.446,0.297-0.718,0.297s-0.526-0.105-0.718-0.297C61.937,6.254,61.937,5.61,62.333,5.214z"/>
	</g>
	<g>
		<path fill="#1B272D" d="M105.398,6.44c-0.132-0.177-0.383-0.214-0.56-0.082l-3.848,2.867c0.701-1.311,1.054-2.342,1.048-3.08
			c-0.019-2.572-2.126-4.664-4.697-4.664h-0.033c-2.59,0-4.683,2.141-4.665,4.73c0.007,1.064,0.765,2.729,2.249,4.945
			c1.084,1.619,2.182,2.964,2.192,2.978l0.314,0.384l0.309-0.389c0.011-0.014,1.089-1.373,2.15-3.007
			c0.141-0.217,0.272-0.427,0.4-0.633c0.003,0.002,0.005,0.005,0.007,0.007l4.573,3.406c0.071,0.055,0.155,0.08,0.238,0.08
			c0.122,0,0.243-0.056,0.321-0.161c0.132-0.177,0.096-0.428-0.082-0.56l-4.202-3.131l4.202-3.131
			C105.494,6.868,105.53,6.618,105.398,6.44z M97.391,13.235c-1.334-1.694-3.936-5.344-3.947-7.028
			c-0.014-2.149,1.722-3.91,3.87-3.925l0.028-0.001c2.133,0,3.882,1.736,3.897,3.87C101.251,7.837,98.701,11.522,97.391,13.235z"/>
		<path fill="#1B272D" d="M97.403,4.116c-0.484,0-0.94,0.189-1.283,0.531c-0.708,0.709-0.708,1.859,0,2.568
			c0.343,0.342,0.799,0.531,1.283,0.531c0.485,0,0.941-0.189,1.284-0.531c0.707-0.709,0.707-1.859,0-2.568
			C98.345,4.306,97.889,4.116,97.403,4.116z M98.122,6.649c-0.192,0.191-0.447,0.297-0.719,0.297c-0.271,0-0.526-0.105-0.718-0.297
			c-0.396-0.396-0.396-1.039,0-1.436c0.191-0.191,0.447-0.297,0.718-0.297c0.271,0,0.526,0.105,0.718,0.297
			C98.518,5.61,98.518,6.254,98.122,6.649z"/>
	</g>
	<path fill="#1B272D" d="M447.201,8.243l-5.068-6.8c-0.092-0.125-0.242-0.178-0.387-0.154c-0.143-0.023-0.295,0.029-0.387,0.154
		l-5.066,6.8c-0.133,0.177-0.096,0.428,0.08,0.56c0.072,0.054,0.156,0.079,0.24,0.079c0.121,0,0.242-0.056,0.32-0.16l4.412-5.923
		v5.648c0,0.002-0.002,0.004-0.004,0.006l-2.35,1.562c-0.098,0.064-0.156,0.164-0.172,0.271c-0.047,0.065-0.074,0.144-0.074,0.229
		v3.8c0,0.221,0.18,0.4,0.4,0.4s0.4-0.18,0.4-0.4v-3.708l2.133-1.418l2.066,1.399v3.727c0,0.221,0.18,0.4,0.4,0.4s0.4-0.18,0.4-0.4
		v-3.8c0-0.063-0.016-0.122-0.043-0.176c-0.002-0.125-0.062-0.247-0.174-0.322l-2.184-1.479v-5.74l4.412,5.923
		c0.078,0.104,0.199,0.16,0.322,0.16c0.082,0,0.166-0.025,0.238-0.079C447.295,8.671,447.332,8.42,447.201,8.243z"/>
	<g>
		<path fill="#A0A0A0" d="M465.861,9.602l-2.768-0.74c0.072-0.275,0.115-0.564,0.115-0.861s-0.043-0.586-0.115-0.861l2.768-0.74
			c0.213-0.059,0.34-0.277,0.281-0.49c-0.057-0.213-0.275-0.342-0.488-0.283l-2.854,0.764c-0.514-0.951-1.471-1.631-2.592-1.764V2
			c0-0.221-0.18-0.4-0.4-0.4s-0.4,0.18-0.4,0.4v2.625c-1.555,0.184-2.791,1.42-2.975,2.975h-2.625c-0.221,0-0.4,0.18-0.4,0.4
			s0.18,0.4,0.4,0.4h2.625c0.199,1.686,1.635,3,3.375,3c1.293,0,2.418-0.725,2.992-1.791l2.854,0.766
			c0.033,0.01,0.068,0.014,0.104,0.014c0.176,0,0.338-0.119,0.385-0.297C466.201,9.879,466.074,9.658,465.861,9.602z M459.809,10.6
			c-1.434,0-2.6-1.166-2.6-2.6s1.166-2.6,2.6-2.6s2.6,1.166,2.6,2.6S461.242,10.6,459.809,10.6z"/>
		<path fill="#1B272D" d="M462.77,9.479c-0.064-0.113-0.182-0.193-0.32-0.201l-2.996-0.193c-0.221-0.012-0.41,0.152-0.426,0.373
			c-0.014,0.221,0.154,0.41,0.375,0.426l2.049,0.131c-0.463,0.379-1.045,0.586-1.643,0.586c-0.221,0-0.4,0.18-0.4,0.4v3
			c0,0.221,0.18,0.4,0.4,0.4s0.4-0.18,0.4-0.4v-2.627c0.488-0.059,0.957-0.221,1.377-0.479l-0.555,1.498
			c-0.076,0.207,0.029,0.438,0.236,0.514c0.045,0.016,0.092,0.025,0.139,0.025c0.162,0,0.314-0.102,0.375-0.262l1.043-2.816
			C462.871,9.723,462.848,9.584,462.77,9.479z"/>
	</g>
	<g>
		<path fill="#A0A0A0" d="M483.59,5.908c-0.057-0.213-0.277-0.341-0.49-0.283l-2.852,0.765c-0.494-0.917-1.4-1.578-2.467-1.745V2
			c0-0.221-0.18-0.4-0.4-0.4s-0.4,0.18-0.4,0.4v2.614c-1.613,0.13-2.912,1.389-3.1,2.985h-2.5c-0.221,0-0.4,0.18-0.4,0.4
			s0.18,0.4,0.4,0.4h2.5c0.199,1.687,1.635,3,3.375,3c1.873,0,3.398-1.525,3.398-3.4c0-0.298-0.041-0.585-0.113-0.86l2.766-0.741
			C483.521,6.341,483.646,6.121,483.59,5.908z M477.256,10.6c-1.342,0-2.447-1.02-2.586-2.324c0.068-0.072,0.111-0.169,0.111-0.275
			s-0.043-0.203-0.111-0.275c0.139-1.305,1.244-2.324,2.586-2.324c1.434,0,2.6,1.166,2.6,2.6S478.689,10.6,477.256,10.6z"/>
		<path fill="#1B272D" d="M484.557,9.915l-1.982-2.255c-0.146-0.166-0.398-0.183-0.564-0.036c-0.166,0.146-0.182,0.398-0.037,0.564
			l1.215,1.382l-3.055-0.813c-0.004-0.001-0.01-0.001-0.014-0.002c-0.014-0.004-0.029-0.006-0.043-0.008
			c-0.012-0.001-0.023-0.003-0.037-0.003S480.014,8.745,480,8.746s-0.025,0.002-0.039,0.004c-0.012,0.002-0.023,0.005-0.035,0.009
			c-0.014,0.003-0.027,0.007-0.039,0.012c-0.012,0.004-0.021,0.01-0.031,0.015c-0.014,0.006-0.025,0.012-0.037,0.02
			c-0.01,0.006-0.02,0.014-0.027,0.021c-0.012,0.008-0.023,0.017-0.033,0.026c-0.01,0.008-0.018,0.017-0.025,0.025
			c-0.008,0.011-0.018,0.021-0.027,0.033c-0.006,0.009-0.012,0.02-0.018,0.03c-0.008,0.012-0.016,0.024-0.021,0.038
			c-0.002,0.004-0.004,0.008-0.006,0.012c-0.404,0.979-1.348,1.609-2.404,1.609c-0.223,0-0.4,0.18-0.4,0.4
			c0,0.114,0.049,0.217,0.125,0.29V14c0,0.221,0.18,0.4,0.4,0.4s0.4-0.18,0.4-0.4v-2.641c1.047-0.162,1.959-0.805,2.465-1.745
			l2.768,0.737l-1.662,0.764c-0.201,0.092-0.289,0.33-0.197,0.53c0.068,0.146,0.213,0.233,0.363,0.233
			c0.057,0,0.113-0.012,0.168-0.037l2.727-1.254c0.127-0.059,0.209-0.175,0.229-0.303C484.676,10.159,484.648,10.02,484.557,9.915z
			 M483.6,10.038l0.027,0.031l-0.035,0.016C483.596,10.069,483.598,10.054,483.6,10.038z"/>
	</g>
	<g>
		<path fill="#A0A0A0" d="M501.344,9.602l-2.768-0.74c0.072-0.275,0.115-0.564,0.115-0.861c0-1.695-1.25-3.102-2.875-3.355V2
			c0-0.221-0.18-0.4-0.4-0.4s-0.398,0.18-0.398,0.4v2.613c-1.615,0.131-2.912,1.391-3.102,2.986h-2.5c-0.221,0-0.398,0.18-0.398,0.4
			s0.178,0.4,0.398,0.4h2.5c0.199,1.686,1.635,3,3.375,3c1.293,0,2.418-0.725,2.994-1.791l2.852,0.766
			c0.035,0.01,0.07,0.014,0.104,0.014c0.176,0,0.338-0.119,0.387-0.297C501.684,9.879,501.557,9.658,501.344,9.602z M495.291,10.6
			c-1.34,0-2.447-1.02-2.586-2.324c0.068-0.072,0.111-0.168,0.111-0.275s-0.043-0.203-0.111-0.275
			c0.139-1.305,1.246-2.324,2.586-2.324c1.434,0,2.6,1.166,2.6,2.6S496.725,10.6,495.291,10.6z"/>
		<path fill="#1B272D" d="M502.676,5.719c-0.02-0.129-0.1-0.246-0.227-0.305l-2.729-1.254c-0.201-0.092-0.438-0.004-0.529,0.197
			c-0.094,0.201-0.006,0.438,0.195,0.531l1.658,0.762l-1.695,0.453l-1.387,0.369c-0.01,0.004-0.018,0.008-0.027,0.01
			c-0.006,0.004-0.014,0.004-0.021,0.008c-0.004,0.002-0.006,0.004-0.01,0.006c-0.016,0.006-0.031,0.016-0.045,0.023
			c-0.008,0.004-0.016,0.01-0.023,0.014c-0.016,0.012-0.029,0.023-0.041,0.035c-0.006,0.006-0.012,0.01-0.018,0.016
			c-0.014,0.014-0.025,0.029-0.035,0.045c-0.004,0.004-0.008,0.01-0.012,0.014c-0.01,0.018-0.02,0.035-0.029,0.055
			c0,0.004-0.004,0.008-0.006,0.014c-0.008,0.02-0.014,0.039-0.018,0.061c-0.002,0.004-0.002,0.008-0.004,0.012
			c-0.004,0.021-0.006,0.043-0.006,0.064c0,0.004,0,0.008,0,0.012c0,0.021,0.002,0.043,0.004,0.064
			c0.002,0.006,0.002,0.01,0.004,0.016c0.002,0.008,0.002,0.016,0.004,0.023s0.006,0.014,0.008,0.02
			c0.004,0.01,0.006,0.02,0.01,0.029c0.129,0.312,0.193,0.646,0.193,0.988c0,1.434-1.166,2.6-2.6,2.6c-0.221,0-0.4,0.18-0.4,0.4
			c0,0.115,0.049,0.217,0.127,0.289V14c0,0.221,0.178,0.4,0.398,0.4s0.4-0.18,0.4-0.4v-2.645c1.625-0.254,2.875-1.66,2.875-3.355
			c0-0.293-0.041-0.582-0.113-0.861l0.934-0.25l1.713-0.455l-1.215,1.381c-0.146,0.166-0.131,0.42,0.035,0.564
			c0.076,0.066,0.17,0.1,0.264,0.1c0.111,0,0.223-0.045,0.301-0.135l1.982-2.256C502.684,5.982,502.711,5.844,502.676,5.719z
			 M501.635,5.965c-0.002-0.016-0.004-0.031-0.008-0.047l0.035,0.016L501.635,5.965z"/>
	</g>
	<g>
		<path fill="#A0A0A0" d="M519.98,10.252l-2.768-0.742c0.072-0.275,0.115-0.562,0.115-0.861c0-0.297-0.043-0.584-0.115-0.859
			l2.768-0.742c0.213-0.057,0.34-0.275,0.283-0.49c-0.059-0.213-0.277-0.34-0.49-0.281l-2.852,0.764
			c-0.576-1.064-1.701-1.789-2.994-1.789c-1.729,0-3.156,1.295-3.369,2.967h-2.656c-0.221,0-0.4,0.178-0.4,0.4
			c0,0.221,0.18,0.398,0.4,0.398h2.646c0.184,1.703,1.629,3.033,3.379,3.033c1.293,0,2.418-0.725,2.994-1.789l2.852,0.764
			c0.035,0.01,0.07,0.014,0.104,0.014c0.178,0,0.338-0.117,0.387-0.297C520.32,10.527,520.193,10.309,519.98,10.252z M513.928,11.25
			c-1.434,0-2.6-1.168-2.6-2.602s1.166-2.6,2.6-2.6s2.6,1.166,2.6,2.6S515.361,11.25,513.928,11.25z"/>
		<path fill="#1B272D" d="M517.328,8.648c0-1.74-1.314-3.176-3.004-3.375l0.006-2.699l1.02,1.531
			c0.078,0.115,0.205,0.178,0.334,0.178c0.076,0,0.152-0.021,0.221-0.066c0.184-0.123,0.234-0.371,0.111-0.555l-1.664-2.498
			c-0.078-0.115-0.207-0.178-0.336-0.178c-0.129-0.014-0.264,0.035-0.352,0.143l-1.918,2.309c-0.141,0.17-0.117,0.424,0.053,0.564
			c0.074,0.061,0.164,0.092,0.254,0.092c0.115,0,0.23-0.049,0.309-0.145l1.168-1.408l-0.004,3.035c0,0.018,0.002,0.037,0.004,0.055
			c0,0.006-0.002,0.012-0.002,0.018c0,0.221,0.18,0.4,0.4,0.4c1.434,0,2.6,1.166,2.6,2.6c0,1.395-1.104,2.533-2.484,2.596
			c-0.043-0.018-0.09-0.027-0.141-0.027c-0.221,0-0.4,0.178-0.4,0.4v3c0,0.221,0.18,0.398,0.4,0.398s0.4-0.178,0.4-0.398v-2.59
			C516.002,11.84,517.328,10.396,517.328,8.648z"/>
	</g>
	<g>
		<path fill="#A0A0A0" d="M538.572,9.602l-2.768-0.742c0.072-0.275,0.115-0.562,0.115-0.859c0-0.299-0.043-0.586-0.115-0.861
			l2.768-0.74c0.213-0.059,0.34-0.277,0.283-0.49c-0.059-0.213-0.277-0.342-0.49-0.283l-2.852,0.764
			c-0.514-0.951-1.469-1.629-2.588-1.762V2c0-0.221-0.18-0.4-0.4-0.4s-0.398,0.18-0.398,0.4v2.625
			c-1.691,0.195-3.008,1.633-3.008,3.375c0,1.875,1.525,3.4,3.4,3.4c1.293,0,2.418-0.727,2.994-1.791l2.852,0.766
			c0.035,0.008,0.07,0.014,0.104,0.014c0.176,0,0.338-0.119,0.387-0.297C538.912,9.879,538.785,9.658,538.572,9.602z M532.52,10.6
			c-1.434,0-2.6-1.166-2.6-2.6s1.166-2.6,2.6-2.6s2.6,1.166,2.6,2.6S533.953,10.6,532.52,10.6z"/>
		<path fill="#1B272D" d="M535.92,8c0-1.875-1.525-3.4-3.4-3.4c-1.738,0-3.176,1.312-3.375,3h-2.572l1.533-1.021
			c0.184-0.123,0.232-0.371,0.111-0.555c-0.123-0.184-0.371-0.234-0.555-0.111l-2.498,1.666c-0.115,0.076-0.178,0.205-0.178,0.334
			c-0.014,0.129,0.033,0.264,0.143,0.354l2.309,1.916c0.074,0.062,0.166,0.092,0.256,0.092c0.115,0,0.229-0.049,0.309-0.145
			c0.141-0.17,0.117-0.422-0.053-0.562L526.543,8.4h2.982l0,0h0.01l0,0c0.221,0,0.4-0.178,0.4-0.398
			c0-0.031-0.004-0.062-0.012-0.092c0.049-1.393,1.193-2.51,2.596-2.51c1.434,0,2.6,1.166,2.6,2.6s-1.166,2.6-2.6,2.6
			c-0.221,0-0.4,0.18-0.4,0.4c0,0.021,0.004,0.043,0.008,0.064V14c0,0.221,0.178,0.4,0.398,0.4s0.4-0.18,0.4-0.4v-2.627
			C534.609,11.172,535.92,9.736,535.92,8z M526.051,7.992l-0.029-0.025l0.035-0.023C526.055,7.959,526.051,7.975,526.051,7.992z"/>
	</g>
	<g>
		<g>
			<path fill-rule="evenodd" clip-rule="evenodd" fill="#A0A0A0" d="M568.361,14.149c-0.264,0.547-0.713,0.812-1.287,0.82
				c-0.6,0.01-1.07-0.254-1.352-0.827c-0.139,0.354-0.404,0.57-0.734,0.714c-0.398,0.169-0.805,0.166-1.201,0.003
				c-0.463-0.189-0.652-0.573-0.686-1.05c-0.006-0.066,0-0.135,0-0.221c0.264,0.382,0.656,0.465,1.061,0.512
				c0.309,0.038,0.621,0.014,0.92-0.078c0.262-0.083,0.506-0.193,0.645-0.465c0.141,0.268,0.377,0.385,0.635,0.459
				c0.477,0.139,0.957,0.134,1.43-0.02c0.273-0.088,0.414-0.199,0.57-0.432c0.191,0.332,0.514,0.44,0.854,0.504
				c0.434,0.083,0.865,0.061,1.281-0.099c0.205-0.079,0.385-0.19,0.494-0.408c0.254,0.406,0.664,0.495,1.084,0.538
				c0.424,0.043,0.844,0.002,1.223-0.212c0.121-0.067,0.219-0.174,0.314-0.253c0.068,0.551-0.215,1.054-0.689,1.23
				c-0.52,0.191-1.014,0.143-1.475-0.17c-0.209-0.144-0.293-0.249-0.449-0.545c-0.268,0.55-0.729,0.816-1.314,0.819
				C569.096,14.972,568.631,14.708,568.361,14.149z"/>
		</g>
		<g>
			<path fill-rule="evenodd" clip-rule="evenodd" fill="#A0A0A0" d="M567.053,4.974c0.031-0.215,0.055-0.413,0.088-0.605
				c0.006-0.033,0.057-0.068,0.09-0.08c0.48-0.146,0.967-0.193,1.457-0.143c0.264,0.025,0.525,0.092,0.787,0.137
				c0.074,0.013,0.113,0.053,0.123,0.156c0.018,0.172,0.045,0.345,0.072,0.535C568.791,4.7,567.938,4.7,567.053,4.974z"/>
		</g>
		<g>
			<path fill-rule="evenodd" clip-rule="evenodd" fill="#A0A0A0" d="M567.467,6.353c0-0.205,0-0.414,0-0.639
				c0.598-0.068,1.193-0.068,1.791,0c0,0.225,0,0.434,0,0.639C568.662,6.353,568.07,6.353,567.467,6.353z"/>
		</g>
		<g>
			<path fill-rule="evenodd" clip-rule="evenodd" fill="#A0A0A0" d="M567.191,5.745c0,0.271,0,0.489,0,0.699
				c-0.414,0.125-0.828,0.248-1.25,0.375c0.033-0.212,0.066-0.43,0.105-0.647c0.004-0.03,0.031-0.075,0.057-0.082
				C566.459,5.974,566.814,5.863,567.191,5.745z"/>
		</g>
		<g>
			<path fill-rule="evenodd" clip-rule="evenodd" fill="#A0A0A0" d="M569.531,6.444c0-0.204,0-0.425,0-0.666
				c0.143,0.029,0.277,0.049,0.408,0.085c0.205,0.06,0.406,0.133,0.611,0.193c0.088,0.026,0.133,0.084,0.146,0.188
				c0.023,0.195,0.055,0.389,0.082,0.574C570.361,6.693,569.949,6.571,569.531,6.444z"/>
		</g>
		<g>
			<path fill-rule="evenodd" clip-rule="evenodd" fill="#A0A0A0" d="M566.531,10.001c0.004,0.246,0.059,0.461,0.221,0.636
				c0.184,0.198,0.436,0.202,0.627,0.015c0.309-0.299,0.311-0.951,0.004-1.254c-0.191-0.188-0.443-0.188-0.627,0.008
				C566.596,9.575,566.541,9.786,566.531,10.001z"/>
		</g>
		<g>
			<path fill-rule="evenodd" clip-rule="evenodd" fill="#A0A0A0" d="M569.109,10.022c0.012,0.23,0.062,0.447,0.229,0.623
				c0.184,0.187,0.426,0.191,0.617,0.01c0.309-0.297,0.314-0.949,0.01-1.254c-0.197-0.195-0.449-0.192-0.639,0.013
				C569.17,9.585,569.117,9.798,569.109,10.022z"/>
		</g>
		<g>
			<path fill="#1B272D" d="M573.756,9.509l-0.896-0.465c0.004-0.04,0.004-0.08-0.004-0.121l-0.678-3.568
				c-0.029-0.153-0.135-0.28-0.279-0.337l-0.803-0.31l-0.189-1.398c-0.025-0.188-0.168-0.341-0.354-0.38l-0.762-0.159V1.468
				c0-0.248-0.203-0.45-0.451-0.45h-1.918c-0.248,0-0.451,0.202-0.451,0.45v1.303l-0.762,0.159c-0.186,0.039-0.328,0.191-0.354,0.38
				l-0.189,1.398l-0.803,0.31c-0.145,0.057-0.25,0.184-0.279,0.337l-0.678,3.568c-0.008,0.041-0.008,0.081-0.004,0.121l-0.896,0.465
				c-0.211,0.109-0.301,0.363-0.205,0.581l1.01,2.304c0.012,0.027,0.027,0.054,0.045,0.078c0.246,0.351,0.541,0.695,1.182,0.724
				c0.09,0.003,0.322-0.001,0.58-0.115c0.271,0.266,0.664,0.43,1.137,0.468c0.062,0.005,0.127,0.008,0.193,0.008
				c0.48,0,1.031-0.137,1.434-0.441c0.402,0.305,0.953,0.441,1.434,0.441c0.064,0,0.131-0.003,0.193-0.008
				c0.473-0.038,0.863-0.202,1.135-0.468c0.26,0.114,0.492,0.118,0.582,0.115c0.641-0.028,0.936-0.373,1.182-0.724
				c0.018-0.024,0.033-0.051,0.045-0.078l1.01-2.304C574.057,9.872,573.967,9.618,573.756,9.509z M565.422,5.769l0.816-0.316
				c0.154-0.059,0.262-0.196,0.285-0.359l0.182-1.347l0.809-0.169c0.209-0.044,0.359-0.229,0.359-0.441V1.919h1.016v1.217
				c0,0.213,0.15,0.397,0.359,0.441l0.809,0.169l0.182,1.347c0.021,0.163,0.131,0.301,0.285,0.359l0.816,0.316l0.523,2.759
				l-3.24-1.68c-0.074-0.038-0.156-0.053-0.234-0.048c-0.084-0.008-0.17,0.006-0.25,0.048l-3.24,1.68L565.422,5.769z
				 M572.145,11.989c-0.189,0.265-0.266,0.297-0.459,0.306c-0.031,0.001-0.189,0.001-0.326-0.146
				c-0.104-0.112-0.26-0.164-0.41-0.135c-0.152,0.027-0.277,0.131-0.336,0.273c-0.115,0.287-0.512,0.348-0.678,0.361
				c-0.48,0.037-0.998-0.143-1.156-0.404c-0.086-0.143-0.238-0.219-0.395-0.215c-0.158-0.006-0.314,0.07-0.402,0.215
				c-0.158,0.262-0.678,0.441-1.156,0.404c-0.166-0.014-0.562-0.074-0.678-0.361c-0.059-0.143-0.186-0.246-0.336-0.273
				s-0.307,0.022-0.41,0.135c-0.137,0.146-0.295,0.146-0.326,0.146c-0.193-0.009-0.27-0.041-0.459-0.306l-0.822-1.875l4.586-2.377
				l4.586,2.377L572.145,11.989z"/>
			<path fill="#1B272D" d="M563.1,8.703c0.137,0,0.271-0.063,0.361-0.182c0.148-0.2,0.107-0.481-0.092-0.63l-2.201-1.64l2.201-1.639
				c0.199-0.148,0.24-0.431,0.092-0.63c-0.148-0.2-0.432-0.241-0.631-0.092l-2.65,1.973c-0.125,0.095-0.188,0.242-0.18,0.388
				c-0.008,0.146,0.055,0.294,0.18,0.388l2.65,1.974C562.91,8.674,563.006,8.703,563.1,8.703z"/>
		</g>
	</g>
	<g>
		<g>
			<path fill-rule="evenodd" clip-rule="evenodd" fill="#A0A0A0" d="M550.232,14.149c-0.266,0.548-0.715,0.812-1.287,0.82
				c-0.602,0.011-1.07-0.254-1.354-0.827c-0.137,0.354-0.402,0.57-0.734,0.714c-0.398,0.169-0.805,0.166-1.201,0.003
				c-0.463-0.189-0.652-0.573-0.686-1.051c-0.004-0.065,0-0.134,0-0.219c0.264,0.381,0.658,0.464,1.061,0.512
				c0.309,0.037,0.621,0.013,0.922-0.08c0.262-0.082,0.504-0.191,0.645-0.464c0.139,0.268,0.375,0.386,0.633,0.459
				c0.477,0.139,0.957,0.134,1.432-0.019c0.271-0.089,0.412-0.199,0.57-0.432c0.189,0.332,0.514,0.439,0.852,0.504
				c0.434,0.082,0.865,0.06,1.283-0.1c0.205-0.078,0.385-0.19,0.494-0.408c0.252,0.406,0.662,0.495,1.084,0.539
				c0.422,0.043,0.842,0.001,1.223-0.213c0.119-0.067,0.217-0.174,0.312-0.253c0.07,0.551-0.215,1.054-0.689,1.23
				c-0.52,0.191-1.014,0.143-1.475-0.169c-0.209-0.145-0.293-0.25-0.447-0.546c-0.27,0.55-0.729,0.817-1.316,0.819
				S550.502,14.709,550.232,14.149z"/>
		</g>
		<g>
			<path fill-rule="evenodd" clip-rule="evenodd" fill="#A0A0A0" d="M548.922,4.975c0.031-0.217,0.055-0.414,0.09-0.606
				c0.006-0.033,0.055-0.068,0.088-0.081c0.48-0.145,0.969-0.192,1.459-0.143c0.262,0.026,0.523,0.093,0.785,0.138
				c0.074,0.013,0.113,0.053,0.125,0.155c0.016,0.174,0.045,0.346,0.07,0.537C550.662,4.7,549.807,4.7,548.922,4.975z"/>
		</g>
		<g>
			<path fill-rule="evenodd" clip-rule="evenodd" fill="#A0A0A0" d="M549.338,6.353c0-0.206,0-0.415,0-0.638
				c0.598-0.068,1.191-0.068,1.789,0c0,0.223,0,0.432,0,0.638C550.531,6.353,549.939,6.353,549.338,6.353z"/>
		</g>
		<g>
			<path fill-rule="evenodd" clip-rule="evenodd" fill="#A0A0A0" d="M549.061,5.745c0,0.272,0,0.489,0,0.7
				c-0.414,0.125-0.826,0.247-1.25,0.374c0.033-0.212,0.066-0.43,0.105-0.647c0.006-0.03,0.033-0.074,0.057-0.082
				C548.328,5.975,548.686,5.863,549.061,5.745z"/>
		</g>
		<g>
			<path fill-rule="evenodd" clip-rule="evenodd" fill="#A0A0A0" d="M551.402,6.445c0-0.205,0-0.426,0-0.668
				c0.143,0.031,0.275,0.049,0.406,0.086c0.205,0.06,0.406,0.133,0.613,0.193c0.088,0.026,0.133,0.084,0.145,0.188
				c0.023,0.195,0.057,0.389,0.084,0.573C552.23,6.693,551.818,6.572,551.402,6.445z"/>
		</g>
		<g>
			<path fill-rule="evenodd" clip-rule="evenodd" fill="#A0A0A0" d="M548.4,10c0.004,0.247,0.059,0.463,0.221,0.637
				c0.184,0.198,0.436,0.202,0.629,0.015c0.307-0.299,0.309-0.951,0.002-1.253c-0.191-0.189-0.443-0.189-0.627,0.008
				C548.465,9.575,548.41,9.786,548.4,10z"/>
		</g>
		<g>
			<path fill-rule="evenodd" clip-rule="evenodd" fill="#A0A0A0" d="M550.979,10.023c0.012,0.23,0.062,0.447,0.23,0.621
				c0.184,0.188,0.426,0.191,0.615,0.012c0.311-0.297,0.314-0.949,0.01-1.255c-0.197-0.195-0.447-0.192-0.637,0.013
				C551.039,9.585,550.988,9.798,550.979,10.023z"/>
		</g>
		<g>
			<path fill="#1B272D" d="M555.625,9.509l-0.896-0.465c0.004-0.04,0.004-0.08-0.004-0.121l-0.678-3.568
				c-0.029-0.153-0.135-0.28-0.279-0.337l-0.803-0.31l-0.189-1.397c-0.025-0.189-0.166-0.342-0.354-0.381l-0.762-0.16V1.469
				c0-0.25-0.201-0.451-0.451-0.451h-1.918c-0.248,0-0.449,0.201-0.449,0.451V2.77l-0.762,0.16c-0.188,0.039-0.33,0.191-0.355,0.381
				l-0.189,1.397l-0.801,0.31c-0.146,0.057-0.252,0.184-0.281,0.337l-0.678,3.568c-0.008,0.041-0.008,0.081-0.004,0.121
				l-0.896,0.465c-0.211,0.109-0.301,0.364-0.205,0.581l1.01,2.304c0.012,0.028,0.027,0.054,0.045,0.079
				c0.246,0.35,0.541,0.694,1.184,0.723c0.088,0.004,0.32,0,0.58-0.115c0.271,0.266,0.664,0.43,1.135,0.468
				c0.064,0.005,0.129,0.007,0.195,0.007c0.479,0,1.029-0.136,1.432-0.439c0.402,0.304,0.953,0.439,1.434,0.439
				c0.066,0,0.131-0.002,0.193-0.007c0.473-0.038,0.865-0.202,1.137-0.468c0.26,0.115,0.49,0.119,0.58,0.115
				c0.643-0.028,0.936-0.373,1.184-0.723c0.018-0.025,0.031-0.051,0.043-0.079l1.012-2.304
				C555.926,9.873,555.836,9.618,555.625,9.509z M547.293,5.768l0.816-0.314c0.152-0.06,0.262-0.197,0.283-0.36l0.184-1.347
				l0.809-0.169c0.207-0.044,0.357-0.228,0.357-0.44V1.919h1.018v1.218c0,0.213,0.148,0.396,0.357,0.44l0.809,0.169l0.182,1.347
				c0.023,0.163,0.133,0.301,0.285,0.36l0.816,0.314l0.523,2.76l-3.24-1.68c-0.074-0.038-0.154-0.053-0.234-0.048
				c-0.084-0.008-0.17,0.007-0.25,0.048l-3.24,1.68L547.293,5.768z M554.014,11.989c-0.189,0.265-0.266,0.298-0.459,0.306
				c-0.029,0-0.188,0.001-0.324-0.146c-0.105-0.112-0.26-0.163-0.412-0.135c-0.15,0.028-0.277,0.131-0.334,0.273
				c-0.117,0.286-0.514,0.349-0.68,0.361c-0.479,0.036-0.998-0.143-1.154-0.403c-0.088-0.144-0.24-0.219-0.396-0.216
				c-0.158-0.006-0.314,0.069-0.402,0.216c-0.158,0.261-0.678,0.439-1.156,0.403c-0.164-0.013-0.561-0.075-0.678-0.361
				c-0.059-0.143-0.184-0.245-0.336-0.273c-0.15-0.028-0.305,0.022-0.41,0.135c-0.137,0.146-0.297,0.146-0.324,0.146
				c-0.193-0.008-0.27-0.041-0.461-0.306l-0.822-1.874l4.586-2.378l4.586,2.378L554.014,11.989z"/>
			<path fill="#1B272D" d="M545.645,6.252c0.008-0.146-0.055-0.293-0.182-0.387l-2.648-1.975c-0.201-0.148-0.482-0.107-0.631,0.093
				c-0.148,0.199-0.107,0.481,0.092,0.63l2.199,1.639l-2.199,1.639c-0.199,0.148-0.24,0.432-0.092,0.631
				c0.088,0.119,0.225,0.182,0.361,0.182c0.094,0,0.188-0.029,0.27-0.09l2.648-1.974C545.59,6.546,545.652,6.398,545.645,6.252z"/>
		</g>
	</g>
	<g>
		<g>
			<path fill="#A0A0A0" d="M285,9.779c-0.221,0-0.5-0.18-0.5-0.4v-7.6c0-0.221,0.279-0.4,0.5-0.4s0.5,0.18,0.5,0.4v7.6
				C285.5,9.6,285.221,9.779,285,9.779z"/>
		</g>
		<g>
			<path fill="#1B272D" d="M276.242,10.432c-0.172,0-0.332-0.111-0.383-0.283l-2.453-8.119c-0.064-0.211,0.057-0.434,0.268-0.498
				s0.434,0.057,0.498,0.268l2.453,8.117c0.062,0.211-0.057,0.436-0.268,0.498C276.318,10.426,276.279,10.432,276.242,10.432z"/>
		</g>
		<g>
			<path fill="#1B272D" d="M273.869,2.18c-0.221,0-0.4-0.164-0.4-0.385c-0.002-0.221,0.178-0.395,0.398-0.395l8.48-0.021l0,0
				c0.221,0,0.4,0.178,0.4,0.398s-0.178,0.387-0.398,0.389L273.869,2.18L273.869,2.18z"/>
		</g>
		<path fill="#1B272D" d="M285.357,9.623L274,1.932c-0.184-0.125-0.432-0.076-0.557,0.107c-0.123,0.182-0.076,0.432,0.107,0.555
			l11.125,7.533v4.094c0,0.221,0.178,0.4,0.398,0.4s0.4-0.18,0.4-0.4V10.16C285.584,9.979,285.535,9.742,285.357,9.623z"/>
	</g>
</g>
</svg>
