<?xml version="1.0" encoding="utf-8"?><!DOCTYPE svg PUBLIC "-//W3C//DTD SVG 1.1//EN" "http://www.w3.org/Graphics/SVG/1.1/DTD/svg11.dtd"><svg width="720" height="180" viewBox="0 0 720 180" xmlns="http://www.w3.org/2000/svg" xmlns:xlink="http://www.w3.org/1999/xlink"><svg width="180" height="180" viewBox="0 0 180 180" id="icon-mode-auto"><path d="M156.145 98.56c0-7.87-6.44-14.31-14.308-14.31h-2.766l-6.083-21.066c-3.162-11.48-14.964-20.47-26.874-20.47H71.997c-11.853 0-23.786 8.896-27.17 20.255l-6.644 21.28h-.02c-7.87 0-14.308 6.44-14.308 14.31v31.48H35.41v9.503c0 3.934 3.22 7.152 7.152 7.152h3.335c3.933 0 7.155-3.22 7.155-7.152v-9.503h72.16v9.503c0 3.934 3.22 7.152 7.152 7.152h3.335c3.932 0 7.152-3.22 7.152-7.152v-9.503h13.292V98.56zM56.253 66.372c1.865-6.253 9.22-11.737 15.744-11.737h34.116c6.476 0 13.658 5.474 15.38 11.714l5.212 17.9h-76.08l5.628-17.877zm-10.355 47.013c-5.237-.125-9.15-4.312-9.08-9.646.08-5.008 4.326-9.042 9.465-8.964 5.144.082 9.312 4.317 9.225 9.4-.1 5.206-4.388 9.307-9.61 9.21zm87.676-.017c-5.125.01-9.228-4.06-9.24-9.166-.018-5.388 4.055-9.46 9.395-9.434 5.11 0 9.188 4.125 9.204 9.22.005 5.324-4.05 9.366-9.36 9.38z"/></svg><svg width="180" height="180" viewBox="0 0 180 180" id="icon-mode-bicycle" x="180"><path fill-rule="evenodd" clip-rule="evenodd" d="M133.85 90.27a28.15 28.15 0 0 0-9.503 1.645c-3.09-6.378-13.3-27.454-13.527-27.975 1.582-.09 2.944-.06 4.272-.27 3.034-.475 4.896-3.564 3.843-6.448-.61-1.667-1.346-3.32-2.297-4.807-.416-.647-1.244-1.155-2.302-1.155-.887 0-1.64.81-1.95 1.497-.296.643-.052 1.65.217 2.403.43 1.204 1.708 3.73 1.708 3.73s-10.085.034-14.78 0c-1.213-.008-2.115-.652-2.64-1.794-.667-1.447-1.35-2.89-2.066-4.312-.75-1.493-2.02-1.998-3.354-1.39-1.275.582-1.777 2.02-1.132 3.45.733 1.625 1.488 3.237 2.314 4.815 1.212 2.315 3.135 3.754 5.748 4.02 1.908.19 3.846.06 5.76.205.526.042 1.25.448 1.48.894 1.423 2.8 4.348 9.562 4.348 9.562H68.275l-3.184-5.38h2.283c1.622-.008 2.63-1.03 2.63-2.494 0-1.457-1.013-2.422-2.665-2.427H56.536c-1.652.006-2.665.97-2.667 2.428 0 1.464 1.008 2.486 2.63 2.495h2.704l-.03.02 5.92 10.218-7.5 13.495a28.096 28.096 0 0 0-11.445-2.427c-15.583 0-28.215 12.63-28.215 28.212 0 15.582 12.632 28.215 28.214 28.215 14.654 0 26.696-11.175 28.078-25.468h8.17c1.223 3.637 4.654 6.26 8.703 6.26a9.188 9.188 0 0 0 9.19-9.19 9.17 9.17 0 0 0-3.51-7.214L113.94 82.17l5.892 11.833c-8.48 4.866-14.194 14-14.194 24.478 0 15.583 12.632 28.216 28.215 28.216 15.582 0 28.214-12.633 28.214-28.215 0-15.58-12.632-28.21-28.213-28.21zm-51.533 25.326h-8.1c-.866-8.538-5.54-15.95-12.298-20.513l6.213-11.095 16.558 27.73a9.198 9.198 0 0 0-2.373 3.878zm9.875-6.416a9.155 9.155 0 0 0-1.09-.07c-.723 0-1.423.09-2.097.25L71.21 79.3h38.5L92.19 109.18z"/></svg><svg width="180" height="180" viewBox="0 0 180 180" id="icon-mode-multimodal" x="360"><path d="M147.162 161.32c-1.307-1.036-2.705-1.986-4.06-2.973-5.02-3.65-10.146-7.2-15.052-10.99 5.99-.655 10.693-5.766 10.693-11.924v-90.75c0-6.6-5.4-12-12-12h-15.98l-4.812-6.9c-1.573-2.254-5.11-4.1-7.86-4.1H81.908c-2.75 0-6.287 1.846-7.86 4.1l-4.813 6.9h-15.98c-6.6 0-12 5.4-12 12v90.75c0 6.158 4.704 11.27 10.696 11.925-4.907 3.788-10.034 7.338-15.052 10.99-1.355.985-2.754 1.936-4.06 2.97-.808.644-1.774 1.6-1.407 2.73.175.543.58.988.993 1.37.738.68 1.275.578 2.25.578h110.652c.975 0 1.512.102 2.25-.578.414-.382.818-.827.992-1.37.37-1.13-.598-2.086-1.405-2.73zm-86.398-25.78c-4.88-.117-8.53-4.018-8.463-8.988.077-4.668 4.034-8.427 8.823-8.354 4.793.076 8.678 4.023 8.596 8.76-.097 4.85-4.09 8.673-8.956 8.58zm24.875-29.927a2 2 0 0 1-2 2H50.433a2 2 0 0 1-2-2V65.07a2 2 0 0 1 2-2H83.64a2 2 0 0 1 2 2v40.543zm-4.57-62.988c.035-4.764 3.982-8.7 8.715-8.714 4.814-.005 8.68 3.94 8.67 8.847-.01 4.716-3.865 8.557-8.604 8.55-4.88 0-8.827-3.9-8.78-8.682zm12.815 62.988V65.07a2 2 0 0 1 2-2h33.195a2 2 0 0 1 2 2v40.543a2 2 0 0 1-2 2H95.885a2 2 0 0 1-2-2zm24.607 29.912c-4.775.01-8.6-3.783-8.61-8.54-.017-5.022 3.778-8.818 8.755-8.792 4.764 0 8.562 3.843 8.578 8.59.006 4.963-3.774 8.73-8.723 8.742z"/></svg><svg width="180" height="180" viewBox="0 0 180 180" id="icon-mode-pedestrian" x="540"><path d="M124.684 137.263c-.834-3.486-3.768-5.365-7.61-4.825-.155-.27-.305-.537-.448-.807-1.697-3.174-3.39-6.35-5.083-9.527-4.75-8.913-9.664-18.13-14.586-27.148-1.144-2.1-1.643-4.195-1.617-6.793.045-4.916.053-9.876.05-14.797 3.463 2.63 7.854 5.88 11.8 8.802 2.146 1.59 4.175 3.092 5.876 4.36a5.884 5.884 0 0 0 3.548 1.188c1.584 0 3.125-.62 4.338-1.745 1.42-1.32 2.157-3.05 2.07-4.877-.093-1.96-1.104-3.775-2.848-5.112a6496.53 6496.53 0 0 0-14.802-11.307l-3.688-2.812c-.662-.504-2.227-1.604-3.74-2.67-1.365-.96-2.776-1.954-3.39-2.415l-.206-.154a5.99 5.99 0 0 0-3.248-2.557c-2.67-.896-5.333-.053-7.252 2.293l-5.125 6.285c-3.137 3.85-6.275 7.698-9.42 11.54-1.5 1.83-3.004 3.653-4.51 5.478-2.333 2.826-4.666 5.652-6.976 8.5l-.117.144c-1.095 1.35-2.336 2.88-2.24 5.027.142 3.074 1.73 5.253 4.474 6.132 2.605.836 5.19-.028 7.1-2.363 2.194-2.684 4.383-5.368 6.574-8.054l4.767-5.842a1687.35 1687.35 0 0 1 3.477-4.244l.808-.985c-.013 4.236-.03 8.475-.053 12.71-.01 2.19.096 4.512 1.27 6.777L68.29 117.275c-3.86 4.905-7.718 9.81-11.572 14.72-1.902 2.43-2.094 5.346-.502 7.61a53.64 53.64 0 0 0 4.108 5.15c1.098 1.22 2.736 1.918 4.494 1.918 1.1 0 2.175-.275 3.105-.796 2.536-1.414 3.792-4.298 3.054-7.01-.224-.827-.62-1.58-1-2.31l-.25-.48c.117-.156.242-.32.372-.484l4.147-5.274c5.047-6.418 10.094-12.835 15.122-19.263.366-.47.943-1.555.565-2.382l.552 1.037c.826 1.56 1.652 3.118 2.483 4.675l4.81 8.993c3.502 6.555 7.006 13.11 10.522 19.66 1.246 2.322 3.304 3.654 5.648 3.654.662 0 1.335-.108 2.002-.32a56.476 56.476 0 0 0 5.144-1.95 6.212 6.212 0 0 0 3.588-7.16zM90.66 28.973c-6.333-.03-11.153 4.812-11.127 11.187.023 6.05 4.88 10.854 10.96 10.843 6.284-.012 11.065-4.807 11.06-11.09a10.912 10.912 0 0 0-10.894-10.94z"/></svg></svg>